<?xml version="1.0" encoding="UTF-8"?>
<!-- Generator: visioncortex VTracer 0.6.4 -->
<svg version="1.1" xmlns="http://www.w3.org/2000/svg" width="5903" height="6000">
<path d="M0 0 C12.659209503579405 2.635060857075885 23.104830088289873 11.929410674627476 32.716796875 20.0517578125 C34.991045165551895 21.93173631134914 37.33958897038019 23.69800283216479 39.703369140625 25.463134765625 C50.155002107369 33.275388977002635 58.58369385124115 41.24976197185268 63.4912109375 53.5185546875 C64.04808593750022 53.2504296875 64.60496093749998 52.982304687500005 65.1787109375 52.7060546875 C67.4912109375 52.5185546875 67.4912109375 52.5185546875 69.8662109375 54.3310546875 C74.90460540405729 59.96489577283248 78.1990568935339 66.92572499864917 81.664306640625 73.581787109375 C103.64284678607237 115.76344215175172 137.53779039261053 137.24439828574617 178.70751953125 159.04296875 C181.2826597793328 160.4080053803641 183.8507632752112 161.78529730544037 186.4169921875 163.1669921875 C204.55935295916152 172.89031176930274 223.22485186498534 181.48853858774999 242.02978515625 189.840087890625 C248.02536079223182 192.503801456082 253.99361885879944 195.21175567331414 259.9287109375 198.0068359375 C267.37314859102617 201.50376572985783 274.9125058119639 204.7623509295988 282.4912109375 207.9560546875 C283.18818084716804 208.25057525634764 283.8851507568361 208.54509582519532 284.6032409667969 208.84854125976563 C354.47135185439765 238.3643152688062 425.3089711264747 265.48485738893413 496.545166015625 291.504150390625 C503.10367134804255 293.90138474374305 509.6534713693309 296.3197584961238 516.1943359375 298.7646484375 C530.114528360692 303.9660779451759 544.0342917039043 309.12491684657675 558.09619140625 313.93408203125 C568.3839650620139 317.45893264664943 578.6261594539292 321.10772968407815 588.8662109375 324.7685546875 C589.7638717651371 325.08927947998046 590.6615325927733 325.4100042724609 591.5863952636719 325.7404479980469 C601.1821888651393 329.16998301802107 610.7724430187382 332.61422748458193 620.3505859375 336.0927734375 C633.8738563830047 341.0026660182949 647.3835942946107 345.88949335101313 661.061279296875 350.356689453125 C670.66588835742 353.5201672951777 680.168008778669 356.9606507860201 689.6787109375 360.3935546875 C708.5075481989779 367.1857923379549 727.4044740650788 373.75285183356203 746.3572845458984 380.1914978027344 C751.1522120762293 381.8205109924612 755.9467581894269 383.4506447528284 760.7412109375 385.0810546875 C761.7008071899418 385.4072076416016 762.6604034423826 385.7333605957031 763.6490783691406 386.06939697265625 C775.3918380112464 390.0627925227443 787.0987822904044 394.12534289142553 798.748046875 398.384765625 C807.7002960501759 401.6398511052194 816.742520523906 404.6049866070032 825.790771484375 407.58056640625 C834.4673719930115 410.4487418804138 843.0528960634028 413.5221783063451 851.6222839355469 416.6950378417969 C868.7325833164514 423.0270039419916 886.0366227342765 428.5754710658968 903.4823608398438 433.9046630859375 C907.7957829413826 435.2228169916064 912.1067122952436 436.5491130356959 916.418212890625 437.87353515625 C918.5999139370242 438.5432248904251 920.7820303809258 439.2115631427587 922.964599609375 439.87841796875 C928.4222750556601 441.550797877959 933.8427667290161 443.2893064593686 939.2412109375 445.1435546875 C944.0988682666766 446.7992016737097 948.9703858863322 448.197491896625 953.93310546875 449.489013671875 C997.9526131404355 460.9851273151029 1040.309919185548 480.9858341448503 1081.679931640625 499.66162109375 C1092.170853192123 504.39494785301986 1102.7121330238688 509.00823781094743 1113.271240234375 513.587158203125 C1120.1073741322798 516.5578675821228 1126.894930283299 519.6133992806915 1133.6412048339844 522.78369140625 C1141.7179194702012 526.5749004510659 1149.8543402080804 530.2336763225572 1157.9912109375 533.8935546875 C1158.8519219970703 534.2808374023438 1159.7126330566407 534.6681201171875 1160.5994262695313 535.067138671875 C1177.371542374597 542.6083935211383 1194.2005887954629 550.0138555037415 1211.080322265625 557.3108673095703 C1215.2109351994068 559.09656297604 1219.3393739866378 560.8869349143682 1223.462890625 562.68896484375 C1254.3818308901045 576.2006938936158 1285.6426582471668 588.8510991083668 1317.24658203125 600.6787109375 C1326.542624749428 604.1617720435612 1335.660211454223 607.6999949729661 1344.4912109375 612.2685546875 C1345.9892626953124 613.0319616699219 1345.9892626953124 613.0319616699219 1347.517578125 613.810791015625 C1377.2454926863775 629.1102617738126 1405.6653512948305 647.2570281981452 1433.6748046875 665.4716796875 C1434.532630462647 666.0294812011718 1435.390456237793 666.5872827148437 1436.2742767333984 667.1619873046875 C1445.453955446259 673.1369390007303 1454.6089299709174 679.1492434230915 1463.755126953125 685.17529296875 C1466.5547413296426 687.0192333458509 1469.3559711830767 688.8607022833104 1472.1572265625 690.7021484375 C1483.3539060143312 698.0720650134675 1494.4664168636937 705.5528270898344 1505.5072937011719 713.154052734375 C1508.1635130948116 714.9809518026333 1510.8267175979536 716.7974999232998 1513.4912109375 718.6123046875 C1514.3250732421875 719.180458984375 1515.158935546875 719.74861328125 1516.01806640625 720.333984375 C1516.8342041015621 720.889892578125 1517.6503417968752 721.44580078125 1518.4912109375 722.0185546875 C1532.551057702295 731.6008542174101 1546.5962712147393 741.2042981285857 1560.6123046875 750.8505859375 C1563.1858860385973 752.6216596214965 1565.7614843721858 754.3897367942936 1568.3388671875 756.1552734375 C1576.6193330388278 761.8309879974024 1584.856194175828 767.566109310774 1593.074951171875 773.330810546875 C1598.1343142877386 776.8767675399096 1603.2074396911567 780.400871443629 1608.3037109375 783.8935546875 C1622.4430930552617 793.5867958387515 1636.507424318821 803.3888029765378 1650.49755859375 813.296142578125 C1655.7259332240992 816.9929287237974 1660.9948910696849 820.6273854532731 1666.27783203125 824.24560546875 C1672.4062136581197 828.4477967081607 1678.492554853562 832.7087995840245 1684.576416015625 836.97509765625 C1691.0375573926358 841.5046965319132 1697.5116073489826 846.0154117936812 1703.9912109375 850.5185546875 C1711.1667352052746 855.5059892002085 1718.3349491590288 860.5035196912908 1725.4912109375 865.5185546875 C1735.489758617101 872.5246179164698 1745.5120564468607 879.4962918379707 1755.537109375 886.46435546875 C1758.5253427069601 888.5422889609081 1761.512359574006 890.6219598518348 1764.4990234375 892.7021484375 C1773.4369770389421 898.9264153968587 1782.3791796926444 905.1432971618391 1791.36279296875 911.301513671875 C1797.1957342099904 915.304527095501 1802.9995426712221 919.3489758816759 1808.8037109375 923.3935546875 C1818.28440660434 929.9981979774568 1827.8051898482763 936.541405588763 1837.34912109375 943.05419921875 C1839.978046893215 944.8513609403357 1842.6010380807475 946.657020791004 1845.22314453125 948.464111328125 C1863.8971578399633 961.3316962015397 1882.6935309399878 974.0201926055678 1901.4912109375 986.7060546875 C1902.4136862182613 987.3287826538086 1903.3361614990235 987.9515106201172 1904.2865905761719 988.5931091308594 C1913.8828204631336 995.0695300587724 1923.4875834889071 1001.5318149870518 1933.1396484375 1007.9248046875 C1933.8895806884766 1008.422085723877 1934.6395129394532 1008.919366760254 1935.4121704101563 1009.4317169189453 C1938.870577920121 1011.7244373260864 1942.3319124999925 1014.0124227875299 1945.7998046875 1016.290771484375 C1966.1325070463354 1029.7075147168616 1966.1325070463354 1029.7075147168616 1974.3662109375 1038.5810546875 C1980.2692550038046 1044.6644168201385 1987.1382785750966 1048.4521207965513 1994.4912109375 1052.5185546875 C1995.8888047974278 1053.3055014768463 1997.2859329658595 1054.0932758373226 1998.6826171875 1054.8818359375 C2002.440812501649 1056.9938585468738 2006.214522640672 1059.076414147632 2009.99462890625 1061.14892578125 C2012.6534837735917 1062.6075778256256 2015.3086187456602 1064.072880458547 2017.9638671875 1065.5380859375 C2026.8078668479775 1070.4045848841233 2035.6678153658067 1075.1952013163113 2044.72607421875 1079.65185546875 C2049.5301457273245 1082.0188832869612 2054.2670135573944 1084.4962003495436 2058.9912109375 1087.0185546875 C2070.5559679958333 1093.1792319598992 2082.26573257539 1098.9864000904254 2094.142333984375 1104.52099609375 C2098.9076686584904 1106.749128184622 2103.6134177179374 1109.0746748114202 2108.3037109375 1111.4560546875 C2114.455971274271 1114.55809969573 2120.6656969261976 1117.5216289331277 2126.9287109375 1120.3935546875 C2127.7450903320314 1120.7750366210937 2128.561469726563 1121.1565185546874 2129.402587890625 1121.549560546875 C2134.0883717854085 1123.672694526699 2138.483252010261 1125.1313396847 2143.565673828125 1125.975830078125 C2146.751897534611 1126.873887045225 2148.4496234880125 1129.0303699834374 2150.4912109375 1131.5185546875 C2150.8212109375 1131.8485546875 2151.1512109375 1132.1785546875 2151.4912109375 1132.5185546875 C2151.8229009649785 1135.4205408915502 2151.9296862531373 1136.9387682932115 2150.13671875 1139.3095703125 C2144.540737293917 1143.9630410658237 2138.626953755668 1147.5474163022857 2132.2412109375 1151.0185546875 C2130.187796902226 1152.1617324499837 2128.1344111702965 1153.3049610534588 2126.0810546875 1154.4482421875 C2122.9782854511095 1156.158802519049 2119.869473817832 1157.8556360182918 2116.7451171875 1159.5263671875 C2103.0635973676153 1167.048477686082 2093.8823667339957 1177.772344797812 2086.1162109375 1191.1435546875 C2085.5040673828125 1192.1967993164062 2084.891923828125 1193.2500439453124 2084.26123046875 1194.335205078125 C2074.2752480591134 1211.6875402159533 2065.339271165868 1229.5645136831802 2056.75732421875 1247.644775390625 C2052.265322082947 1257.0806958999442 2047.4449491776722 1266.3184498022788 2042.4912109375 1275.5185546875 C2041.7852494246608 1276.8322319360068 2041.0795121056371 1278.1460296950122 2040.3740234375 1279.4599609375 C2040.0789892578123 1280.0085375976562 2039.7839550781246 1280.5571142578126 2039.47998046875 1281.122314453125 C2038.928664550781 1282.1537658691404 2038.928664550781 1282.1537658691404 2038.3662109375 1283.2060546875 C2037.4623767089843 1284.896982421875 2037.4623767089843 1284.896982421875 2036.540283203125 1286.6220703125 C2034.529125392888 1290.4199258194358 2032.606821905124 1294.258231937255 2030.6982421875 1298.1083984375 C2027.2936863609893 1304.945978177276 2023.803853061856 1311.735574327516 2020.2801513671875 1318.5126037597656 C2011.938441202824 1334.5815281872108 2003.801350585637 1350.75403973689 1995.6896934509277 1366.9399185180664 C1994.7598982298377 1368.7937949447546 1993.8285267743768 1370.6468705325822 1992.8966369628906 1372.4996948242188 C1985.0948953559064 1388.0166341459994 1977.5589649779931 1403.6259154112342 1970.31005859375 1419.4072265625 C1967.4705535543426 1425.5879101088053 1964.549064376327 1431.7266087955552 1961.5774383544922 1437.8447265625 C1955.2479697881781 1450.9296970838213 1950.296446163864 1464.5278961572237 1945.8037109375 1478.3310546875 C1945.2857287285487 1479.9061396574753 1944.767075198184 1481.481003991322 1944.247802734375 1483.0556640625 C1943.1793285476306 1486.2972073422413 1942.1136528890893 1489.5396506359587 1941.0498046875 1492.78271484375 C1939.597460521878 1497.203669357188 1938.126629192121 1501.6182304013826 1936.6474609375 1506.0302734375 C1924.7330584621686 1541.5761456705077 1912.9642994836977 1577.1706619481895 1901.96337890625 1613.010986328125 C1897.6338350892984 1627.1135674823433 1893.133890530995 1641.1552472576507 1888.57177734375 1655.18408203125 C1887.2906511252004 1659.1374534485462 1886.0281419195408 1663.09653217022 1884.768798828125 1667.056884765625 C1875.163012441316 1697.2461279434262 1865.3468392977056 1727.36995227076 1855.0043334960938 1757.3150939941406 C1854.7692608642574 1757.9958297729493 1854.534188232422 1758.676565551758 1854.2919921875 1759.3779296875 C1854.0596588134767 1760.05068939209 1853.8273254394535 1760.7234490966796 1853.5879516601563 1761.4165954589844 C1849.3361472181177 1773.749053445708 1845.2317984541887 1786.1317137629583 1841.1494140625 1798.5211181640625 C1840.7122876626427 1799.8476573482005 1840.274790502851 1801.1740744181964 1839.8369140625 1802.5003662109375 C1831.2779717914764 1828.4293990931817 1823.5370737461517 1854.5237243186518 1816.57177734375 1880.928466796875 C1813.8393486261966 1891.276287923082 1810.992599812509 1901.589179619366 1808.1114807128906 1911.8964233398438 C1805.5952572148044 1920.899632886087 1803.1063796151711 1929.908986775275 1800.6787109375 1938.9365234375 C1768.2302919067552 2059.485042783723 1768.2302919067552 2059.485042783723 1743.4912109375 2110.5185546875 C1743.082094726563 2111.3693359375 1742.672978515625 2112.2201171875 1742.25146484375 2113.0966796875 C1736.6416244251868 2124.7227814550597 1730.8734606359767 2135.911716366082 1723.4912109375 2146.5185546875 C1722.8595703125002 2147.4428125 1722.2279296875004 2148.3670703125 1721.5771484375 2149.3193359375 C1717.8039941934594 2154.6840470128745 1713.7211473435227 2159.761393186318 1709.4912109375 2164.7685546875 C1708.7800109863274 2165.618369140625 1708.7800109863274 2165.618369140625 1708.054443359375 2166.4853515625 C1701.62935033742 2173.962933935361 1694.2069227499069 2179.6628601424677 1685.9287109375 2184.9560546875 C1685.0510205078126 2185.5188110351564 1684.1733300781252 2186.0815673828124 1683.26904296875 2186.661376953125 C1666.3875887094982 2197.37490326249 1648.2366539213217 2208.0478935741558 1627.4912109375 2205.5185546875 C1626.4966740417476 2205.1842041015625 1625.5021371459961 2204.849853515625 1624.4774627685547 2204.50537109375 C1619.4983560381525 2203.0550867283987 1614.5254356958803 2203.2715055234476 1609.379150390625 2203.3232421875 C1608.2783766174316 2203.3261627197267 1607.1776028442382 2203.3290832519533 1606.043472290039 2203.3320922851563 C1603.653117040415 2203.339693108959 1601.2627730050917 2203.351914514761 1598.8724613189697 2203.3682250976563 C1595.0414315527014 2203.3939786028664 1591.2105424989832 2203.4068485773632 1587.3794403076172 2203.41650390625 C1577.8301776662247 2203.443134348745 1568.2810443812432 2203.4906217300095 1558.7318725585938 2203.539306640625 C1501.291819738325 2203.8296940954688 1501.291819738325 2203.8296940954688 1475.8037109375 2202.6201171875 C1474.938994846344 2202.5792196655275 1474.074278755188 2202.5383221435545 1473.1833591461182 2202.4961853027344 C1461.915785908859 2201.9449000936893 1450.685131747162 2201.082141028036 1439.4485473632813 2200.090343475342 C1409.53389115954 2197.4968222567313 1379.5117626103684 2197.7341905396206 1349.5606994628906 2199.658660888672 C1297.0675763593363 2203.0291948052477 1247.07133341601 2197.7792238785873 1200.649658203125 2170.961669921875 C1189.1125386853719 2164.1022822570576 1189.1125386853719 2164.1022822570576 1176.3193359375 2161.6240234375 C1172.9197124648654 2162.6993187071594 1171.7631122495523 2163.7844331358183 1169.4912109375 2166.5185546875 C1168.1632875362875 2169.6750364567233 1168.1632875362875 2169.6750364567233 1167.1943359375 2173.2841796875 C1166.9028995513909 2174.275486373901 1166.9028995513909 2174.275486373901 1166.6055755615234 2175.286819458008 C1166.189825856588 2176.7050826625587 1165.779751021987 2178.1250195434764 1165.3748474121094 2179.546417236328 C1164.2959248761872 2183.3301548683276 1163.1733200030794 2187.1010024944126 1162.0576171875 2190.8740234375 C1161.8362861633304 2191.6268711853027 1161.61495513916 2192.3797189331053 1161.3869171142578 2193.1553802490234 C1159.6118739559488 2199.175222687449 1157.6973876102793 2205.138276670745 1155.6787109375 2211.0810546875 C1155.0299436720707 2213.0041205523553 1154.3815230860264 2214.9273033983923 1153.7333984375 2216.8505859375 C1153.3837402343752 2217.8877978515625 1153.0340820312504 2218.925009765625 1152.673828125 2219.99365234375 C1145.250263691497 2242.1202880355177 1138.1353302476336 2264.3324231224783 1131.4912109375 2286.7060546875 C1131.0903074645994 2288.0470623779297 1131.0903074645994 2288.0470623779297 1130.6813049316406 2289.4151611328125 C1124.6686732811604 2309.5728479217037 1119.6986550866068 2330.012562725226 1115.99267578125 2350.724609375 C1115.6830896972342 2352.4494891926633 1115.3605679687007 2354.172173165796 1115.01708984375 2355.890625 C1112.6524476660752 2368.130796461714 1116.8163382842276 2375.2956059778094 1123.13671875 2385.3046875 C1125.2337555973527 2388.7322163629765 1127.0315470186142 2392.2898803679673 1128.8037109375 2395.8935546875 C1129.1300854492183 2396.5554077148436 1129.4564599609375 2397.2172607421876 1129.792724609375 2397.899169921875 C1137.8600862384255 2414.4288857642237 1141.8056474500463 2431.0814201142034 1144.9287109375 2449.0810546875 C1145.2335458292991 2450.8091565722602 1145.538809732273 2452.5371828298394 1145.844482421875 2454.26513671875 C1147.8547707739535 2465.6723914446975 1149.773976086577 2477.0939903563217 1151.6494140625 2488.524169921875 C1153.1436926304696 2497.5829295303865 1154.7658906489223 2506.614684328 1156.4287109375 2515.6435546875 C1161.1030496964295 2541.058796085167 1165.2031765132651 2566.5721448743307 1169.3115234375 2592.083984375 C1170.6364226193728 2600.3034947995543 1171.9885126491245 2608.51800571485 1173.3623046875 2616.7294921875 C1175.765983153513 2631.109685794238 1178.1048197474702 2645.5002738836747 1180.4287109375 2659.8935546875 C1180.5385279846196 2660.5735238265993 1180.6483450317382 2661.253492965698 1180.761489868164 2661.9540672302246 C1183.9562056490931 2681.741815898612 1187.0680527914428 2701.535245991712 1189.89501953125 2721.37939453125 C1190.5714796987513 2726.1016924570845 1191.2759233994457 2730.819764149325 1191.9794921875 2735.5380859375 C1194.747992528174 2754.136951008776 1197.3665527195626 2772.735747447661 1199.6182556152344 2791.4051971435547 C1200.4175053867948 2797.9941976704577 1201.2668078979677 2804.5764847021915 1202.1162109375 2811.1591796875 C1206.0280145145707 2841.5891563281934 1209.4052743808752 2872.026276720574 1212.2183837890625 2902.5768432617188 C1212.567716229085 2906.3434597296773 1212.9271942843843 2910.1090693880674 1213.2871856689453 2913.8746795654297 C1222.2792975349648 3008.0762662215348 1224.9083466591146 3102.0501919806984 1220.8741817474365 3257.179341316223 C1220.5680995337307 3265.309668827412 1220.2870136915399 3273.4406157873545 1220.0185546875 3281.572265625 C1219.9539530181883 3283.521047716141 1219.9539530181883 3283.521047716141 1219.8880462646484 3285.509199142456 C1219.7988494488527 3288.201089259456 1219.7098533066028 3290.892985901658 1219.6210327148438 3293.584888458252 C1219.499416255233 3297.269929364959 1219.3774080181356 3300.9549571299535 1219.25537109375 3304.6399841308594 C1216.9725738591924 3373.7301188172883 1214.9535068085424 3442.7845405538415 1214.550531387329 3511.9155702590942 C1214.452363917816 3528.4379353810928 1214.3178409542315 3544.960073600055 1214.1870880126953 3561.482208251953 C1214.181630681157 3562.172162235975 1214.1761733496187 3562.8621162199975 1214.1705506443977 3563.572977900505 C1214.126236636228 3569.1736384691317 1214.126236636228 3569.1736384691317 1214.104169011116 3571.946712255478 C1214.0343044059891 3580.7318405143164 1213.969145471704 3589.5169791761264 1213.9094514846802 3598.302183151245 C1213.73230328501 3624.1882990572626 1213.4965170079095 3650.0659378793407 1212.8214111328125 3675.944564819336 C1212.5763243536094 3685.4570510677786 1212.4584893138572 3694.9564918064784 1212.4859313964844 3704.472122192383 C1212.4993971422218 3709.787195308342 1212.4143871289234 3715.0992037518204 1212.3076171875 3720.4130859375 C1212.2881553649904 3721.4402774047853 1212.2686935424808 3722.46746887207 1212.2486419677734 3723.5257873535156 C1212.1857992743153 3726.794255753598 1212.120005501558 3730.0626546152016 1212.0537109375 3733.3310546875 C1212.031313476563 3734.464150695801 1212.008916015625 3735.5972467041015 1211.98583984375 3736.764678955078 C1211.7180169535113 3750.2516271338495 1211.3903264555229 3763.7294870679984 1210.8642578125 3777.208984375 C1210.4684299018763 3787.893293131769 1210.2946231281394 3798.5790735033806 1210.11083984375 3809.268768310547 C1209.6487550068296 3836.060062084521 1208.8213193730116 3862.831955377627 1207.8738021850586 3889.6101293563843 C1207.5815767438871 3897.8709253136312 1207.302686798549 3906.1320925905566 1207.030029296875 3914.3935546875 C1206.2394211604515 3938.2152364211643 1205.3970275133752 3962.035133091538 1204.5569467544556 3985.8551120758057 C1204.2777661935634 3993.7718517306657 1203.999435803953 4001.6886191583585 1203.723388671875 4009.60546875 C1203.3998506131393 4018.8812753991324 1203.074128341852 4028.1570029684117 1202.7451171875 4037.4326171875 C1202.705193976164 4038.5582189464567 1202.705193976164 4038.5582189464567 1202.6644642353058 4039.7065601348877 C1201.9276863183159 4060.444491656191 1201.1277075028247 4081.1777550560473 1200.121353149414 4101.904693603516 C1199.4859388120885 4115.02743095202 1199.069054055436 4128.150558600129 1198.7373046875 4141.2841796875 C1198.5903075070855 4146.36682337265 1198.3287658993813 4151.433776549395 1197.9912109375 4156.5068359375 C1197.573212416276 4162.790003259077 1197.3147352327214 4169.065156937789 1197.1578369140625 4175.360290527344 C1196.8433266309758 4187.873635893673 1196.3871061538075 4200.3720556883145 1195.7407970428467 4212.872653961182 C1194.7931604308442 4231.304526273118 1193.9972587055072 4249.7421704318995 1193.2373046875 4268.1826171875 C1193.1839552497868 4269.47703042984 1193.1306058120726 4270.77144367218 1193.0756397247314 4272.1050815582275 C1192.7744958699814 4279.424138232498 1192.4751571759125 4286.743267635462 1192.1767883896828 4294.0624378323555 C1191.8172348615126 4302.881282057727 1191.4552806545898 4311.70002786389 1191.093331336975 4320.518774032593 C1190.8334481298443 4326.851164884109 1190.5738903247566 4333.183568279459 1190.3155364990234 4339.516021728516 C1189.8720775127822 4350.37151088102 1189.4228771269254 4361.226699350338 1188.952392578125 4372.0810546875 C1188.9131967067715 4372.9872284889225 1188.8740008354189 4373.893402290344 1188.8336172103882 4374.827035903931 C1188.4992186325198 4382.483892663047 1188.1230341537057 4390.1385022646755 1187.7431640625 4397.793212890625 C1186.9681364214084 4413.440315704283 1186.3083975462887 4429.078262912321 1185.8857421875 4444.739013671875 C1185.5040836462858 4458.47062982637 1184.8740270423568 4472.190437759343 1184.2392578125 4485.912353515625 C1183.1103715201552 4510.356472562619 1182.2610210868343 4534.810066747567 1181.446034669876 4559.2663378715515 C1181.3153178001976 4563.184623875516 1181.1838476171051 4567.1028846196095 1181.052474975586 4571.021148681641 C1180.802918582237 4578.467596754229 1180.5540179366553 4585.91406658981 1180.3053626418114 4593.360544800758 C1180.1116610126337 4599.160620312316 1179.917643867103 4604.960685190181 1179.723388671875 4610.7607421875 C1179.6962782531973 4611.570207367539 1179.6691678345205 4612.379672547579 1179.6412358880043 4613.213666975498 C1179.5320753305714 4616.47279795944 1179.4229045704524 4619.731928601581 1179.3137320280075 4622.991059184074 C1179.0164461616378 4631.866582667625 1178.7195339310638 4640.7421183218585 1178.4237213134766 4649.617691040039 C1178.3180603577011 4652.787201472411 1178.2123817519287 4655.9567113157855 1178.106689453125 4659.126220703125 C1178.0679109495877 4660.289288260341 1178.0679109495877 4660.289288260341 1178.0283490419388 4661.475852131844 C1177.6820180453278 4671.858935019248 1177.3311046249073 4682.241851662206 1176.9760855436325 4692.62464094162 C1176.8150292581859 4697.341825725545 1176.6553100680185 4702.0590560387545 1176.4953899383545 4706.776279449463 C1176.4114932681487 4709.23972015688 1176.326942539681 4711.703138707907 1176.2416248321533 4714.166530609131 C1175.513938851942 4735.182884600054 1175.0701007020962 4756.199587695921 1174.7373046875 4777.2255859375 C1174.5880247149444 4786.253095856767 1174.308162395956 4795.272698728861 1173.9951171875 4804.2958984375 C1173.4297140327644 4820.854225459134 1173.2053671138428 4837.411710522863 1173.0172729492188 4853.97802734375 C1172.9489810205087 4859.980040225775 1172.877213101704 4865.982008127262 1172.8028614521027 4871.98394882679 C1172.7834329211337 4873.553850359744 1172.7641814977387 4875.123754101042 1172.7451598644257 4876.693660616875 C1172.62712189184 4886.301935448532 1172.470996443466 4895.9083067958445 1172.2496643066406 4905.514785766602 C1171.53427506981 4936.921851310819 1171.3403372129942 4968.314134604033 1171.35591121763 4999.728702452034 C1171.3582428955688 5004.568610208744 1171.3584610936214 5009.408514460716 1171.3573951721191 5014.248422622681 C1171.357241939083 5014.95248879943 1171.357088706046 5015.65655497618 1171.3569308295846 5016.381956491619 C1171.3566109171325 5017.814851299891 1171.3562866995935 5019.2477461072085 1171.355958238244 5020.680640913546 C1171.3531442620242 5033.944006472577 1171.356324451106 5047.2073649878475 1171.3617586046457 5060.470729388297 C1171.3662178678696 5071.69948391829 1171.3654498378955 5082.92822808062 1171.36083984375 5094.156982421875 C1171.355411652985 5107.383707268241 1171.3534236265614 5120.610426018914 1171.3564521074295 5133.837151825428 C1171.356770456775 5135.264637191205 1171.3570848317668 5136.692122557874 1171.3573951721191 5138.119607925415 C1171.3575494476408 5138.820880563818 1171.3577037231626 5139.522153202221 1171.3578626736999 5140.244676526636 C1171.3587039029053 5145.041508624753 1171.3572996739686 5149.838336608534 1171.3549156188965 5154.6351680755615 C1171.3407916164979 5187.935070118486 1171.630650116791 5221.212367011004 1172.3176918625832 5254.505389332771 C1172.5192488773791 5264.463593490355 1172.640305548406 5274.4221331361105 1172.7373046875 5284.3818359375 C1172.75434837575 5286.089501416436 1172.7713956106218 5287.797166859978 1172.7884464263916 5289.504832267761 C1172.8193777374863 5292.629651646089 1172.8497683676624 5295.754475919996 1172.8799133300781 5298.879302978516 C1173.232443172711 5334.99182124159 1173.9073466276195 5371.092427018313 1174.7627029418945 5407.196397781372 C1174.829710689267 5410.026063944345 1174.8961397771764 5412.855743248393 1174.9624938964844 5415.6854248046875 C1175.04316159481 5419.124291633043 1175.126504488203 5422.563076775086 1175.2118225097656 5426.0018310546875 C1175.2491189183884 5427.567055503123 1175.2863440882347 5429.13228165123 1175.323486328125 5430.697509765625 C1175.3406189632415 5431.357566728592 1175.357751598358 5432.017623691559 1175.3754034042358 5432.697682380676 C1175.4866166679894 5437.503427485505 1175.4910243572813 5442.306549018983 1175.4798431396484 5447.113342285156 C1175.4675981225164 5454.333161538287 1175.5916111286551 5461.5440967113045 1175.7855415344238 5468.7616012096405 C1175.843904698504 5470.938017657914 1175.8995140991701 5473.114491837367 1175.9545593261719 5475.290994644165 C1176.0365410581298 5478.528143472495 1176.1193424508956 5481.7652697117755 1176.2027435302734 5485.002382278442 C1177.141695464824 5521.576346941704 1177.9126752103084 5558.153258583743 1178.6317558288574 5594.732132434845 C1178.710249871363 5598.724657283732 1178.7889538157742 5602.717177966743 1178.8677062988281 5606.709697723389 C1179.2993594471382 5628.6013420171785 1179.7271938316353 5650.493061065745 1180.1526489257813 5672.384826660156 C1181.6384074778425 5750.771461748661 1181.6384074778425 5750.771461748661 1183.4642696380615 5829.150606870651 C1183.520758202042 5831.354467441993 1183.5751227253822 5833.558369824581 1183.6287994384766 5835.762300491333 C1184.0686666379697 5853.678240312116 1184.976565255568 5871.507569112544 1186.2713718414307 5889.380048751831 C1186.731199275283 5895.944718805215 1187.0948210071947 5902.512409082038 1187.343994140625 5909.08837890625 C1187.4024104672117 5910.505521952961 1187.4721053970625 5911.92222972037 1187.551025390625 5913.33837890625 C1187.668866205141 5915.47368280375 1187.753725945482 5917.608011748579 1187.8310546875 5919.7451171875 C1187.886403808594 5920.9576416015625 1187.941752929688 5922.170166015625 1187.998779296875 5923.41943359375 C1187.4912109375 5926.5185546875 1187.4912109375 5926.5185546875 1185.171875 5928.865478515625 C1166.3186094284592 5940.491658951409 1132.8994251712102 5929.815374110755 1112.3271484375 5926.2958984375 C1079.958148938098 5920.8908773851235 1048.2770537931292 5924.323112682559 1015.9912109375 5928.4990234375 C1015.3015417289735 5928.588191566468 1014.6118725204469 5928.6773596954345 1013.9013042449951 5928.769229888916 C1006.8525000461432 5929.681738517678 999.8049137651324 5930.602491616008 992.7606296539307 5931.549311637878 C990.7335231813931 5931.821280682948 988.7061151098924 5932.090875213218 986.6785888671875 5932.35969543457 C984.1671869717484 5932.693380211499 981.6563968674909 5933.031715058285 979.1463623046875 5933.375534057617 C972.8626468287903 5934.206579387068 966.8295972733476 5934.696179705632 960.4912109375 5934.5185546875 C960.4912109375 5935.1785546875 960.4912109375 5935.8385546875 960.4912109375 5936.5185546875 C939.7012109375 5936.5185546875 918.9112109375001 5936.5185546875 897.4912109375 5936.5185546875 C897.4912109375 5935.8585546875 897.4912109375 5935.1985546875 897.4912109375 5934.5185546875 C896.6995654296879 5934.538132324219 895.907919921875 5934.557709960937 895.09228515625 5934.577880859375 C884.8357906430465 5934.716205210952 874.8090427105735 5933.875522245177 864.6162109375 5932.8310546875 C863.7259521484375 5932.741414489746 862.835693359375 5932.651774291992 861.91845703125 5932.559417724609 C813.9417826716344 5927.718557697814 766.3639624183143 5920.412797042544 718.9287109375 5911.7685546875 C679.6131223701441 5904.611397861981 640.1484002616089 5899.35437071754 600.4912109375 5894.5185546875 C599.4545831298828 5894.391803588867 598.4179553222657 5894.265052490235 597.3499145507813 5894.134460449219 C517.0677608344895 5884.348854446811 436.1271539469799 5878.318378415996 355.3662109375 5874.3935546875 C354.5822897338867 5874.354943237305 353.79836853027336 5874.316331787109 352.9906921386719 5874.276550292969 C326.75606251953604 5872.99823949885 300.5284843307695 5872.329253811177 274.264404296875 5872.333251953125 C271.45900028133883 5872.333333273898 268.65375940849253 5872.326346629244 265.848388671875 5872.312744140625 C234.62751124105444 5872.164485625271 203.8129594408265 5874.306829731956 172.7412109375 5877.3310546875 C169.9727688359535 5877.596965849396 167.20416231632134 5877.861144606477 164.435546875 5878.125244140625 C159.5247270031141 5878.594171749083 154.61409409641556 5879.064971344577 149.70369338989258 5879.538268089294 C141.32172705135372 5880.345924364605 132.93820893430893 5881.136001188262 124.5537109375 5881.9169921875 C122.19400858667268 5882.137268808618 119.8343080286354 5882.357564635861 117.474609375 5882.577880859375 C114.18206673805525 5882.885224381125 110.88950051488473 5883.192288724073 107.5968017578125 5883.497955322266 C96.1285064419676 5884.564114335469 84.6717915197205 5885.7012018132045 73.2216796875 5886.9482421875 C57.145534374367344 5888.695209492236 41.04989573428247 5890.219303208657 24.950271606445313 5891.730869293213 C22.51810745648845 5891.959400058228 20.08600996915402 5892.188628460465 17.6539306640625 5892.418060302734 C-6.030636367645457 5894.651925268615 -29.71933862552487 5896.832297753437 -53.41954040527344 5898.894592285156 C-58.604905976750615 5899.347122780067 -63.78848840349565 5899.817332595934 -68.97171020507813 5900.293762207031 C-82.80576645391557 5901.564268249195 -96.64382686876525 5902.641230614741 -110.5087890625 5903.5185546875 C-111.46317871093743 5903.579301757813 -112.41756835937485 5903.640048828125 -113.40087890625 5903.70263671875 C-126.3945580977288 5904.4859519120455 -139.41076373660417 5904.665158538265 -152.42526245117188 5904.748718261719 C-154.16271493325894 5904.7614428356865 -155.90014276846568 5904.778960679972 -157.63748168945313 5904.802551269531 C-189.60824142074125 5905.20448977759 -221.63948508029216 5901.026381318008 -253.3634147644043 5897.4993324279785 C-257.91276241731157 5896.994971891454 -262.46290308734433 5896.497857597262 -267.012939453125 5895.999755859375 C-282.6063915707641 5894.2904517267625 -298.1972147099591 5892.557774492753 -313.7861328125 5890.8076171875 C-318.17282902918805 5890.315228528263 -322.55953880679135 5889.822961695655 -326.9462890625 5889.3310546875 C-327.98754943847644 5889.214223327636 -329.0288098144533 5889.097391967774 -330.10162353515625 5888.977020263672 C-348.1835371995958 5886.952893956258 -366.2798253060728 5885.082636113077 -384.3837890625 5883.2685546875 C-385.6282077026367 5883.1434048461915 -386.8726263427734 5883.018255004883 -388.1547546386719 5882.889312744141 C-395.197081630246 5882.1828689256845 -402.2409202969411 5881.495932738553 -409.2871398925781 5880.829437255859 C-412.29368410176176 5880.539311877105 -415.29742643149075 5880.228671714012 -418.301513671875 5879.914306640625 C-435.00553225574777 5878.247557363036 -451.6825510511085 5878.17703106282 -468.452392578125 5878.202880859375 C-471.6930936488775 5878.207512637942 -474.9334194096359 5878.20057025149 -478.174072265625 5878.182373046875 C-498.16191491433983 5878.071324791245 -517.6798595284026 5878.654034743551 -537.5087890625 5881.5185546875 C-538.2999008178713 5881.629706115723 -539.0910125732421 5881.740857543945 -539.9060974121094 5881.855377197266 C-544.5991756693643 5882.522374814446 -549.2733638465215 5883.285575934201 -553.9462890625 5884.0810546875 C-555.4421105010938 5884.329599016949 -556.9380473944361 5884.577449219823 -558.43408203125 5884.82470703125 C-562.7686181918393 5885.543225925972 -567.1014951085149 5886.271351709905 -571.4341430664063 5887.001159667969 C-580.6853892145105 5888.557940086777 -589.9385576113727 5890.1032906269775 -599.1916341781616 5891.649147987366 C-603.6878957257345 5892.400688779422 -608.1832909476375 5893.157269990564 -612.678466796875 5893.915283203125 C-634.7927883825337 5897.6327419475265 -656.939645064781 5901.32080956269 -679.2587890625 5903.5810546875 C-680.4292175292967 5903.700877075195 -680.4292175292967 5903.700877075195 -681.623291015625 5903.8231201171875 C-727.5133527334488 5908.445645828671 -774.5232431086633 5911.290344645718 -820.5087890625 5906.5185546875 C-821.1856475830077 5906.448320922852 -821.8625061035154 5906.378087158203 -822.5598754882813 5906.305725097656 C-826.3342507629741 5905.913476341864 -830.1083627908633 5905.51871736388 -833.8824462890625 5905.123672485352 C-834.7345172309874 5905.034615135193 -835.5865881729128 5904.945557785034 -836.4644794464111 5904.853801727295 C-838.132343688329 5904.679295299225 -839.8001584466024 5904.504314863987 -841.4679088592529 5904.328723907471 C-853.7939472468711 5903.0349370360655 -866.1190668050649 5901.949956501325 -878.4814453125 5901.0732421875 C-880.2511943462814 5900.945772067758 -882.0209390996138 5900.818242508189 -883.7906799316406 5900.690658569336 C-903.3358469737668 5899.290161083047 -922.890170376585 5898.027497479065 -942.4449691772461 5896.770206451416 C-951.5497745191415 5896.184192317249 -960.6542765826889 5895.593473150911 -969.7587890625 5895.0029296875 C-970.7521010971068 5894.938555240631 -971.745413131714 5894.874180793762 -972.7688255310059 5894.807855606079 C-988.797467615092 5893.7684958298 -1004.8225531523303 5892.6850280772505 -1020.8464965820313 5891.575653076172 C-1042.115943559691 5890.104903205359 -1063.3886249241618 5888.802454734886 -1084.67822265625 5887.66015625 C-1096.7081442242961 5887.013533933588 -1108.7346581402185 5886.332246884222 -1120.7587890625 5885.5849609375 C-1165.8346109299855 5882.788922851401 -1210.9258458755376 5880.471532086714 -1256.0507125854492 5878.619705200195 C-1258.3862462967536 5878.523597355496 -1260.721722829784 5878.426202145824 -1263.0571899414063 5878.3284912109375 C-1306.8056865784201 5876.508914326696 -1350.5666078792956 5876.318101249381 -1394.3467745780945 5876.275762319565 C-1398.756155244827 5876.271488664591 -1403.1655235509566 5876.26501597446 -1407.574897825718 5876.256404221058 C-1471.055122180995 5876.135155908393 -1534.3272483155947 5878.343171171038 -1597.7169895768166 5881.610657572746 C-1602.9754427573494 5881.881405194144 -1608.2341064239185 5882.147724755172 -1613.492919921875 5882.411376953125 C-1614.6125571507214 5882.467511065603 -1614.6125571507214 5882.467511065603 -1615.7548133134842 5882.524779200554 C-1616.500448755026 5882.56216173768 -1617.2460841965676 5882.599544274807 -1618.0143146514893 5882.638059616089 C-1647.7223841677328 5884.127686105261 -1677.4224728523566 5885.702224151779 -1707.1123504638672 5887.524398803711 C-1721.3466209517542 5888.397613466493 -1735.5813430699664 5889.177536970993 -1749.8264465332031 5889.855224609375 C-1756.0893637778686 5890.153249283233 -1762.3518332505778 5890.460371440336 -1768.6142578125 5890.7685546875 C-1769.8747142028808 5890.830550537109 -1771.1351705932618 5890.892546386719 -1772.433822631836 5890.9564208984375 C-1781.5924710610689 5891.411767305771 -1790.7470857141436 5891.921714650934 -1799.9013977050781 5892.456466674805 C-1961.7609033135027 5901.909983422298 -1961.7609033135027 5901.909983422298 -2030.3223266601563 5894.7431640625 C-2032.5350308057275 5894.515858944121 -2034.7487136084983 5894.303950808984 -2036.96337890625 5894.0966796875 C-2095.115331924261 5888.632273499472 -2152.297742994868 5876.495197083478 -2209.3536529541016 5864.411682128906 C-2251.5591645762433 5855.4738424546385 -2293.5119300462657 5846.704782089445 -2336.5087890625 5842.5185546875 C-2337.78625 5842.38578125 -2339.0637109375 5842.2530078125 -2340.3798828125 5842.1162109375 C-2396.6545439205584 5837.087997643879 -2455.024067422267 5848.9976148834185 -2510.2388610839844 5858.186325073242 C-2519.8567958815297 5859.775953338739 -2529.0067294066184 5860.684394687366 -2538.7587890625 5860.7216796875 C-2539.9303051757815 5860.727379760742 -2541.101821289062 5860.733079833984 -2542.308837890625 5860.738952636719 C-2544.783194040702 5860.748369434537 -2547.2575625444006 5860.754923361082 -2549.73193359375 5860.7587890625 C-2553.468980122345 5860.768451755528 -2557.2054660597214 5860.799490391317 -2560.9423828125 5860.8310546875 C-2592.2999790089693 5860.973117260824 -2592.2999790089693 5860.973117260824 -2605.1962890625 5854.2060546875 C-2606.2932812500003 5853.653046875 -2607.3902734374997 5853.1000390625 -2608.5205078125 5852.5302734375 C-2613.8602418963183 5848.935550492185 -2617.9713760343484 5843.8810793732355 -2619.5087890625 5837.5185546875 C-2620.558600053927 5828.582358687305 -2619.1333120782783 5820.282723006098 -2614.3007459640503 5812.597373962402 C-2610.816487582 5806.95452035107 -2609.8039553083436 5802.78320687857 -2609.972900390625 5796.2119140625 C-2609.9753318595886 5795.309773302079 -2609.977763328552 5794.407632541656 -2609.9802684783936 5793.478154182434 C-2609.993930662888 5790.43890060546 -2610.043046007062 5787.401198997138 -2610.0908203125 5784.3623046875 C-2610.1061534464434 5782.126821783312 -2610.118825425122 5779.891319351087 -2610.129104614258 5777.655807495117 C-2610.1553815917555 5772.740672325879 -2610.195761554037 5767.825924247939 -2610.2463989257813 5762.910980224609 C-2610.378851875861 5749.697981716682 -2610.412246529783 5736.484419190968 -2610.451000213623 5723.270875692368 C-2610.458077111295 5720.952887604221 -2610.466043523473 5718.6349039119905 -2610.4741821289063 5716.316919326782 C-2610.6268927266347 5671.545613574933 -2610.1340826291753 5626.778170539436 -2609.6680245399475 5582.009831905365 C-2609.622384957536 5577.605540689166 -2609.5776153763627 5573.2012407894945 -2609.532813847065 5568.796940982342 C-2608.972112256913 5513.753785822898 -2608.326255335883 5458.714741772421 -2607.11865234375 5403.681396484375 C-2607.0978561401366 5402.732668514252 -2607.0770599365233 5401.783940544128 -2607.055633544922 5400.806463241577 C-2606.9618398243556 5396.55652264215 -2606.865560116102 5392.306675377646 -2606.7626342773438 5388.056945800781 C-2606.7453118705753 5387.315016374588 -2606.727989463806 5386.573086948395 -2606.71014213562 5385.808674812317 C-2606.6651592644785 5383.88519035921 -2606.618312845323 5381.961749713699 -2606.571258544922 5380.038314819336 C-2606.496684931823 5376.0314140938 -2606.5117396704163 5372.025933472838 -2606.521011352539 5368.0184326171875 C-2606.534182592326 5359.791142497387 -2606.367800274101 5351.571244573296 -2606.161376953125 5343.346923828125 C-2606.1234309829238 5341.77307807099 -2606.0856951777005 5340.199227235542 -2606.048147201538 5338.625371932983 C-2605.9666310103 5335.218923238252 -2605.8841092972943 5331.812501054418 -2605.8008098602295 5328.406095504761 C-2605.566414732026 5318.805860185254 -2605.340673976439 5309.205418140553 -2605.11474609375 5299.60498046875 C-2605.0904570138455 5298.574668744803 -2605.066167933941 5297.544357020855 -2605.041142821312 5296.482823729515 C-2604.4345129620106 5270.711700566275 -2603.8835384608064 5244.939408150528 -2603.3352847099304 5219.166987895966 C-2603.227851993086 5214.119720935407 -2603.1200812435227 5209.072461215321 -2603.012311577797 5204.0252014398575 C-2602.5431568222803 5182.051265446865 -2602.0757680565935 5160.077292140485 -2601.610595703125 5138.103271484375 C-2601.3640436681126 5126.457189915459 -2601.1161038918735 5114.81113868809 -2600.8667016625404 5103.165117800236 C-2600.736536324621 5097.083956255684 -2600.607052073122 5091.002782111136 -2600.479368209839 5084.92156791687 C-2599.5270091289212 5039.588107746474 -2599.5270091289212 5039.588107746474 -2598.712158203125 5018.393295288086 C-2598.3880289325825 5009.694624987235 -2598.2776660248965 5000.9904808971705 -2598.166748046875 4992.286865234375 C-2597.764958998476 4962.000800358541 -2597.055583767977 4931.7264724335955 -2596.2372970581055 4901.449017524719 C-2596.148442570029 4898.151421883605 -2596.061049548637 4894.853788196447 -2595.973773956299 4891.556150436401 C-2595.9136059094953 4889.310093481152 -2595.8509830583203 4887.064114973629 -2595.7881774902344 4884.818130493164 C-2595.7508409248076 4883.418388894121 -2595.7136139393538 4882.018644366447 -2595.676513671875 4880.618896484375 C-2595.6277433013915 4878.843034133911 -2595.6277433013915 4878.843034133911 -2595.5779876708984 4877.031295776367 C-2595.5084217604795 4873.695120735338 -2595.5103088062206 4870.3609245390735 -2595.5208649635315 4867.024113059044 C-2595.546138442148 4858.403563583407 -2595.348524275879 4849.804871935582 -2595.051513671875 4841.188720703125 C-2594.507370539368 4824.513555808578 -2594.1633764736453 4807.837747567136 -2593.8673067092896 4791.156582593918 C-2593.8092279244656 4787.900797281381 -2593.749684546426 4784.645039205301 -2593.690246462822 4781.38927847147 C-2593.010210920151 4744.094880560772 -2592.3906950182773 4706.7993839281435 -2591.786005973816 4669.503698348999 C-2591.639576223416 4660.479565068835 -2591.4918913060374 4651.4554609941815 -2591.337646484375 4642.431457519531 C-2589.9159673017643 4559.252682313758 -2589.397085913436 4476.080927357092 -2589.321600999683 4337.2365021035075 C-2589.321460827651 4331.419142546807 -2589.320726696851 4325.60178329157 -2589.3197059631348 4319.784423828125 C-2589.27756390515 4213.125590697722 -2589.27756390515 4213.125590697722 -2590.4424781799316 4106.474529266357 C-2590.5067404663405 4102.640769835548 -2590.568792346353 4098.806980852743 -2590.6302185058594 4094.973175048828 C-2590.851223987892 4081.299110119475 -2591.103958848344 4067.625899020293 -2591.384967803955 4053.9529418945313 C-2591.4487240096432 4050.837054162779 -2591.5112255306776 4047.721143172689 -2591.573455810547 4044.605224609375 C-2592.1478054444397 4015.9072945242488 -2592.799457918088 3987.2118667947716 -2593.5712890625 3958.5185546875 C-2593.59152507782 3957.7602070236208 -2593.6117610931396 3957.001859359741 -2593.632610321045 3956.220531463623 C-2594.025416984494 3941.509301198841 -2594.4513714527784 3926.803525209745 -2595.1646881103516 3912.1036987304688 C-2595.6390622238528 3902.1836314678353 -2595.8482673222625 3892.259069164201 -2596.06103515625 3882.33056640625 C-2596.2421561372876 3874.023926184157 -2596.4625743199595 3865.7336944214544 -2596.9775390625 3857.4404296875 C-2597.457835247991 3849.630782774457 -2597.6889310957686 3841.8190435413253 -2597.896495819092 3833.9982204437256 C-2598.402462460519 3814.997733996668 -2599.2840040225165 3796.024914060764 -2600.252185821533 3777.0430030822754 C-2600.4319862594093 3773.508633786149 -2600.6093932163876 3769.974145740944 -2600.7868509292603 3766.439658164978 C-2601.2318197626964 3757.57815750243 -2601.681499091803 3748.7169039874543 -2602.134362220764 3739.855803489685 C-2602.4047679856403 3734.563467918352 -2602.673250404502 3729.2710396232465 -2602.93994140625 3723.978515625 C-2604.2704634957026 3697.605833849186 -2605.690059944375 3671.244862422888 -2607.507080078125 3644.900634765625 C-2608.0235048234913 3637.3612221378353 -2608.513231068845 3629.8293892631864 -2608.8067474365234 3622.277618408203 C-2609.419933776031 3606.6558467015275 -2610.698134378656 3591.084266890164 -2611.898991584778 3575.499231338501 C-2612.554970796496 3566.9673341394696 -2613.1775504296174 3558.4331497890903 -2613.793224334717 3549.898262023926 C-2614.0952537461944 3545.7115658684193 -2614.398745518787 3541.5249757141414 -2614.7021484375 3537.33837890625 C-2614.7626355552675 3536.5034239196775 -2614.823122673035 3535.6684689331055 -2614.8854427337646 3534.8082122802734 C-2618.8113948418177 3480.6468887902847 -2623.360764591896 3426.5764549582623 -2628.5087890625 3372.5185546875 C-2632.3961785688743 3331.6980131701107 -2635.710156713337 3291.1299403558733 -2635.63916015625 3250.0830078125 C-2635.6337416144365 3246.3609621813307 -2635.6391794643587 3242.639034486605 -2635.6455078125 3238.9169921875 C-2635.657148065651 3206.6866029686294 -2635.657148065651 3206.6866029686294 -2632.8212890625 3191.5185546875 C-2632.6483129882813 3190.5877709960937 -2632.4753369140626 3189.6569873046874 -2632.297119140625 3188.697998046875 C-2629.9727468661067 3176.948856836566 -2625.5459429864877 3166.5933356051355 -2620.391845703125 3155.833740234375 C-2606.1408345027985 3125.577688176155 -2597.646077555777 3092.963308929113 -2589.9854125976563 3060.5345458984375 C-2589.552771610664 3058.7045892073943 -2589.1157446960415 3056.8756708277006 -2588.67822265625 3055.046875 C-2579.9134403086473 3017.994455277126 -2574.3183790595112 2979.9515527045105 -2569.8245849609375 2942.1613159179688 C-2569.4830862097615 2939.3034584716647 -2569.13548395814 2936.4463826518195 -2568.787109375 2933.58935546875 C-2565.182073546138 2903.94980858408 -2562.036267859832 2874.299388100859 -2559.7412719726563 2844.5287475585938 C-2559.5084527157733 2841.514199664078 -2559.271127942572 2838.5000271594904 -2559.03369140625 2835.48583984375 C-2556.346350699081 2801.014722741983 -2554.63236318905 2766.4954779238137 -2552.9884452819824 2731.9617767333984 C-2552.824089633702 2728.514790307591 -2552.6582581640373 2725.0678773251884 -2552.492218017578 2721.6209716796875 C-2551.2859933364084 2696.4834698990426 -2550.283686434434 2671.360152519209 -2549.7656393051147 2646.1986694335938 C-2549.7487962055206 2645.3811016845702 -2549.7319531059266 2644.5635339355467 -2549.714599609375 2643.72119140625 C-2549.698197107315 2642.9223553466795 -2549.681794605255 2642.1235192871095 -2549.664895057678 2641.3004760742188 C-2549.515248909842 2634.2799907956573 -2549.263200472181 2627.265261720001 -2548.9775390625 2620.2490234375 C-2548.461300046637 2607.3898335465938 -2548.2439560755865 2594.5315486593267 -2548.062957763672 2581.663787841797 C-2547.814591770555 2564.090529564877 -2547.5555573604497 2546.5209206273166 -2546.9462890625 2528.9560546875 C-2545.851124831336 2496.397690600489 -2549.4113788394766 2465.516082702053 -2554.8759765625 2433.4716796875 C-2564.5619705384033 2376.5983269013554 -2564.5619705384033 2376.5983269013554 -2556.5087890625 2364.5185546875 C-2557.3621484375 2364.2633203125 -2558.2155078124997 2364.0080859375 -2559.0947265625 2363.7451171875 C-2562.7086847771625 2362.4467386069464 -2565.7939642773 2360.7858707621845 -2569.1337890625 2358.8935546875 C-2582.395161504735 2351.6170169522547 -2596.7822895612912 2346.00187189973 -2611.5087890625 2342.5185546875 C-2612.2479858398438 2342.342678222656 -2612.9871826171875 2342.1668017578127 -2613.748779296875 2341.985595703125 C-2619.9835067907193 2340.606708680443 -2625.9446021898057 2340.1672889258953 -2632.3212890625 2340.2060546875 C-2633.2847021484376 2340.2109692382815 -2634.2481152343753 2340.2158837890624 -2635.24072265625 2340.220947265625 C-2649.706774186489 2340.4580358560097 -2662.2065542848486 2344.6399063097124 -2674.5712890625 2352.0810546875 C-2682.7903518435633 2356.995324600982 -2690.764930731001 2360.7605419780457 -2700.5087890625 2359.5185546875 C-2704.120582187393 2358.404650396951 -2707.506850135847 2356.8895840004693 -2710.9462890625 2355.3310546875 C-2717.9377929647717 2352.31783160425 -2724.844027608294 2349.5789949962336 -2732.1962890625 2347.5810546875 C-2732.8768334960937 2347.3945434570314 -2733.5573779296874 2347.2080322265624 -2734.258544921875 2347.015869140625 C-2736.3344334406424 2346.4745410946557 -2738.4150657067194 2345.986116985345 -2740.5087890625 2345.5185546875 C-2741.3126806640626 2345.334541015625 -2742.116572265625 2345.15052734375 -2742.94482421875 2344.9609375 C-2750.7933018418976 2343.3359159290144 -2758.5113738103073 2343.133238611315 -2766.5087890625 2343.1435546875 C-2767.1896557617188 2343.1437661743166 -2767.8705224609375 2343.143977661133 -2768.572021484375 2343.1441955566406 C-2779.9513092602824 2343.1793682643743 -2790.573181351585 2344.2638140212775 -2801.5087890625 2347.5185546875 C-2802.1509033203124 2347.7004736328126 -2802.793017578125 2347.882392578125 -2803.45458984375 2348.06982421875 C-2827.1320381045434 2354.872151459784 -2848.7843162276263 2367.512823789019 -2869.5087890625 2380.5185546875 C-2870.2904443359375 2381.0075927734374 -2871.072099609375 2381.496630859375 -2871.87744140625 2382.00048828125 C-2879.613962292985 2386.8450878734534 -2887.3202693155135 2391.7337243655998 -2894.970458984375 2396.713623046875 C-2904.3737641052257 2402.834240360284 -2913.87561689207 2408.766157649664 -2923.5087890625 2414.5185546875 C-2924.2914111328128 2414.988740234375 -2925.074033203125 2415.45892578125 -2925.88037109375 2415.943359375 C-2941.652263127817 2425.3688437101473 -2959.0015948320624 2435.682823277354 -2976.5087890625 2441.5185546875 C-2977.973955633909 2443.442786618088 -2977.973955633909 2443.442786618088 -2979.3212890625 2445.7685546875 C-2982.794487891276 2451.136225604699 -2986.0438718297714 2454.9990091081886 -2992.3837890625 2456.8935546875 C-3000.785805664668 2458.532584441332 -3007.4547758149342 2455.9782347953837 -3014.5087890625 2451.5185546875 C-3026.4905604740816 2442.5602209218314 -3034.244219146799 2430.139082018801 -3041.97265625 2417.605712890625 C-3045.095258068428 2412.5942470318064 -3048.402088842072 2407.90437240445 -3052.1337890625 2403.3310546875 C-3070.9045318773 2380.1546609986713 -3083.0958694966093 2351.43541750002 -3094.8837890625 2324.2529296875 C-3099.3545425624643 2313.959551986392 -3104.222379064205 2304.0084624024657 -3109.5712890625 2294.1435546875 C-3110.065886230469 2293.2281591796873 -3110.5604833984376 2292.312763671875 -3111.070068359375 2291.36962890625 C-3113.397191356434 2287.127072055888 -3115.794139552857 2283.016362018045 -3118.5283203125 2279.0224609375 C-3121.829814560326 2274.169055471768 -3124.478006798083 2269.0585299370514 -3127.1337890625 2263.8310546875 C-3128.189535207527 2261.7833821034947 -3129.2468672058762 2259.7365264961654 -3130.3056640625 2257.6904296875 C-3130.83869140625 2256.65982421875 -3131.37171875 2255.62921875 -3131.9208984375 2254.5673828125 C-3140.0631155794035 2238.9339252989557 -3148.8115138873045 2223.6578921772884 -3157.76513671875 2208.47802734375 C-3159.4711574685225 2205.582426177586 -3161.168648692619 2202.681981026794 -3162.8642578125 2199.7802734375 C-3172.277414693162 2183.707734409604 -3182.150431373041 2167.9976993864043 -3192.5087890625 2152.5185546875 C-3193.9883739590146 2150.3000818349956 -3195.467579937078 2148.0813609055217 -3196.9462890625 2145.8623046875 C-3197.7040756721544 2144.7255686776957 -3198.461888307359 2143.5888500169845 -3199.2197265625 2142.4521484375 C-3205.6494140625 2132.8076171875 -3212.0791015625 2123.1630859375 -3218.5087890625 2113.5185546875 C-3219.1826464843753 2112.507849121094 -3219.85650390625 2111.4971435546877 -3220.55078125 2110.455810546875 C-3221.831614542267 2108.534390012671 -3223.1118389050903 2106.612563484232 -3224.3916015625 2104.6904296875 C-3225.8608995483464 2102.489193590623 -3227.3343867854596 2100.291299156847 -3228.8134765625 2098.0966796875 C-3234.5142422508115 2089.620480542116 -3240.022752771057 2081.0354047982405 -3245.4501953125 2072.3818359375 C-3247.4192909655985 2069.2423992587414 -3249.405139040884 2066.1150049581242 -3251.4111328125 2062.9990234375 C-3263.4232981159807 2044.2907235334096 -3274.3566400137197 2024.9598912752094 -3284.76611328125 2005.321044921875 C-3287.7699141142857 1999.6666453712212 -3290.9011422388826 1994.1370694011055 -3294.229248046875 1988.66748046875 C-3295.7224254283283 1986.1597629889657 -3297.0171165641227 1983.5966244486597 -3298.2587890625 1980.9560546875 C-3301.1284900139854 1975.095823270783 -3304.374856399671 1969.5113297894197 -3307.73046875 1963.920654296875 C-3311.1520137382213 1958.2050252292017 -3314.3357398334106 1952.3750213600965 -3317.5087890625 1946.5185546875 C-3327.834651909974 1927.646339216038 -3338.5350484750957 1909.0204787195748 -3349.5087890625 1890.5185546875 C-3350.200290527344 1889.3521142578124 -3350.200290527344 1889.3521142578124 -3350.90576171875 1888.162109375 C-3353.417324932364 1883.9337421352689 -3355.9564132572914 1879.7224067955915 -3358.5087890625 1875.5185546875 C-3358.993154296875 1874.7194970703124 -3359.47751953125 1873.920439453125 -3359.9765625 1873.09716796875 C-3369.41768287747 1857.5281508103694 -3378.947390036865 1842.0139353764675 -3388.5087890625 1826.5185546875 C-3389.07984375 1825.5930078125 -3389.6508984375 1824.6674609375 -3390.2392578125 1823.7138671875 C-3400.99771644075 1806.285675300406 -3411.8365497201326 1788.9070963301745 -3422.7587890625 1771.5810546875 C-3423.4889624023435 1770.4221069335936 -3423.4889624023435 1770.4221069335936 -3424.23388671875 1769.23974609375 C-3426.5368272162195 1765.5958136539641 -3428.8605549091003 1761.9690210293693 -3431.2392578125 1758.3740234375 C-3436.5586632030418 1750.3187321903565 -3441.491183107382 1742.1377291617625 -3446.1962890625 1733.7060546875 C-3450.657333633899 1725.7151859179012 -3455.197159895308 1717.980382435399 -3460.5087890625 1710.5185546875 C-3460.8856787109376 1709.9853662109374 -3461.262568359375 1709.452177734375 -3461.65087890625 1708.90283203125 C-3464.1607761868154 1705.3526151535089 -3466.6936892611034 1701.8195113815596 -3469.2353515625 1698.2919921875 C-3470.4791899168113 1696.5597755836432 -3471.714310492407 1694.8217211833087 -3472.9462890625 1693.0810546875 C-3476.321638324304 1688.3180920123564 -3479.693807568886 1683.56049455081 -3483.2431640625 1678.9248046875 C-3507.8786164511475 1646.7465105526105 -3540.610221694381 1603.134693855086 -3541.6337890625 1560.4794921875 C-3542.3864220681453 1530.3211229392634 -3559.591164320506 1505.878284345697 -3578.00390625 1483.175048828125 C-3586.123824970271 1473.1098984379128 -3593.45247815412 1462.7679171494422 -3599.5087890625 1451.3310546875 C-3604.1444246416913 1442.6634253101508 -3609.7310291113236 1435.60385697503 -3616.5087890625 1428.5185546875 C-3617.109169921875 1427.887880859375 -3617.70955078125 1427.25720703125 -3618.328125 1426.607421875 C-3625.0397572905617 1419.6116626624835 -3631.8775618776963 1412.9012605883602 -3639.5009765625 1406.8935546875 C-3642.635807423119 1404.4182596702842 -3645.7033844104803 1401.8731239870506 -3648.77197265625 1399.316650390625 C-3654.979587343606 1394.153123700782 -3661.228574031225 1389.1472797098395 -3667.8017578125 1384.4521484375 C-3671.0821169183605 1382.109034790457 -3674.339714632886 1379.7409519643998 -3677.5712890625 1377.3310546875 C-3678.132353515625 1376.926611328125 -3678.69341796875 1376.52216796875 -3679.271484375 1376.10546875 C-3682.622342703312 1373.584582724819 -3684.350494347286 1371.5689890021927 -3685.5087890625 1367.5185546875 C-3686.1687890625 1367.5185546875 -3686.8287890625 1367.5185546875 -3687.5087890625 1367.5185546875 C-3687.5087890625 1366.5285546875 -3687.5087890625 1365.5385546875 -3687.5087890625 1364.5185546875 C-3685.6376953125 1362.7216796875 -3685.6376953125 1362.7216796875 -3683.0712890625 1360.7685546875 C-3682.165078125 1360.06859375 -3681.2588671875 1359.3686328125 -3680.3251953125 1358.6474609375 C-3679.39578125 1357.944921875 -3678.4663671875 1357.2423828125 -3677.5087890625 1356.5185546875 C-3675.8396294844224 1355.250997413922 -3674.17276131806 1353.9804139271241 -3672.5087890625 1352.7060546875 C-3671.4259765625 1351.89201171875 -3671.4259765625 1351.89201171875 -3670.3212890625 1351.0615234375 C-3668.2712730076973 1349.4591135945607 -3668.2712730076973 1349.4591135945607 -3666.5087890625 1346.5185546875 C-3664.5194054748467 1345.1694324843788 -3662.517575034666 1343.8386140406378 -3660.5087890625 1342.5185546875 C-3658.28370521421 1340.7517387285598 -3656.1477095189825 1338.8882361221397 -3654.0087890625 1337.0185546875 C-3652.770572456087 1335.946865411209 -3651.532289316062 1334.8752530030094 -3650.2939453125 1333.8037109375 C-3649.6663330078127 1333.2585986328124 -3649.038720703125 1332.713486328125 -3648.39208984375 1332.15185546875 C-3645.4203941259216 1329.5746394521213 -3642.4335820065594 1327.015157825468 -3639.4462890625 1324.4560546875 C-3638.86685546875 1323.95912109375 -3638.287421875 1323.4621875 -3637.6904296875 1322.9501953125 C-3633.276753047892 1319.16774840459 -3628.841772762976 1315.411062331297 -3624.40087890625 1311.66064453125 C-3618.6655189025287 1306.8132507573157 -3612.9676242494684 1301.922499252027 -3607.2705078125 1297.0302734375 C-3605.5282916668116 1295.5352897382065 -3603.784462420876 1294.042212030219 -3602.0400390625 1292.5498046875 C-3595.222876914705 1286.716117726403 -3588.425940006292 1280.8601367233807 -3581.657470703125 1274.969970703125 C-3579.9449308421044 1273.4818407454345 -3578.2271340960306 1271.999973341993 -3576.5087890625 1270.5185546875 C-3575.66767578125 1269.7816137695313 -3575.66767578125 1269.7816137695313 -3574.8095703125 1269.02978515625 C-3570.7347176715625 1265.5185546875 -3570.7347176715625 1265.5185546875 -3568.5087890625 1265.5185546875 C-3568.5087890625 1264.8585546875 -3568.5087890625 1264.1985546875 -3568.5087890625 1263.5185546875 C-3564.038200827206 1259.5185546875 -3564.038200827206 1259.5185546875 -3561.5087890625 1259.5185546875 C-3561.5087890625 1258.8585546875 -3561.5087890625 1258.1985546875 -3561.5087890625 1257.5185546875 C-3560.1020088280893 1256.2704113731397 -3558.6299920254523 1255.095470790056 -3557.1337890625 1253.9560546875 C-3553.4863417134497 1251.1140211693935 -3549.9828514949295 1248.2023878921304 -3546.5712890625 1245.0810546875 C-3543.1334858994965 1241.944530048954 -3539.627258642376 1238.9448838132787 -3536.0087890625 1236.0185546875 C-3532.414012560529 1233.110420888153 -3528.9261827835376 1230.1331413699647 -3525.5087890625 1227.0185546875 C-3522.1888941987377 1223.995730478737 -3518.8111479448576 1221.0934330738103 -3515.3212890625 1218.2685546875 C-3510.870267142816 1214.6638538370514 -3506.5168030128148 1210.9648520168887 -3502.1962890625 1207.2060546875 C-3501.2460485839842 1206.3794433593748 -3501.2460485839842 1206.3794433593748 -3500.276611328125 1205.5361328125 C-3498.990472514853 1204.4169298335455 -3497.7044211860634 1203.2976263133996 -3496.41845703125 1202.17822265625 C-3489.376065151927 1196.0577700871322 -3482.31876104957 1189.9582513210325 -3475.0712890625 1184.0810546875 C-3470.019451891468 1179.9787551932554 -3465.1057292607506 1175.7315349106043 -3460.19873046875 1171.45849609375 C-3455.616259731384 1167.4701567865009 -3450.997562812478 1163.5285505766171 -3446.35302734375 1159.61279296875 C-3442.387787572583 1156.267841240002 -3438.4442519215468 1152.8984738509769 -3434.5087890625 1149.5185546875 C-3427.868794854394 1143.8200384729 -3421.2102258030427 1138.1447373975952 -3414.5087890625 1132.5185546875 C-3413.9855908203126 1132.0778564453126 -3413.462392578125 1131.637158203125 -3412.92333984375 1131.18310546875 C-3411.4143687923483 1129.9148926530347 -3409.89919578306 1128.6540703959288 -3408.3837890625 1127.3935546875 C-3407.5149609375 1126.6691015625 -3406.6461328125 1125.9446484375 -3405.7509765625 1125.1982421875 C-3403.5087890625 1123.5185546875 -3403.5087890625 1123.5185546875 -3400.5087890625 1122.5185546875 C-3400.5087890625 1121.8585546875 -3400.5087890625 1121.1985546875 -3400.5087890625 1120.5185546875 C-3398.4181515123664 1118.7562737554708 -3396.316352158838 1117.097521103324 -3394.1337890625 1115.4560546875 C-3388.8498771965997 1111.401129752253 -3383.826585836664 1107.1951687970975 -3378.9189453125 1102.6865234375 C-3375.5455057558293 1099.652068082634 -3372.019447595289 1096.821672398359 -3368.4931640625 1093.9677734375 C-3365.1211741883517 1091.2004466690564 -3361.8121658543296 1088.3670505345856 -3358.5087890625 1085.5185546875 C-3353.492238195955 1081.1959769834264 -3348.4169571902216 1076.9607634753443 -3343.2744140625 1072.7880859375 C-3340.215110595052 1070.2775558321507 -3337.2056928519987 1067.7133927633574 -3334.1962890625 1065.1435546875 C-3329.738101404773 1061.3425025656518 -3325.199660808541 1057.6725781947152 -3320.5712890625 1054.0810546875 C-3315.066873525983 1049.8083642940296 -3309.752046159878 1045.3552117673983 -3304.484375 1040.794921875 C-3300.375725506999 1037.2430628271263 -3296.191047147424 1033.8097522579299 -3291.9306640625 1030.4404296875 C-3286.5163020754535 1026.1438714655212 -3281.193313195164 1021.7319012806552 -3275.8603515625 1017.3349609375 C-3270.200164251198 1012.6790004072354 -3264.474139113921 1008.119078225343 -3258.700927734375 1003.60498046875 C-3255.1008794029062 1000.7849836212699 -3251.539121604784 997.9258873693811 -3248.0087890625 995.0185546875 C-3243.386978421072 991.2143450513538 -3238.698360744068 987.5052355640064 -3233.983642578125 983.817626953125 C-3229.6121417464374 980.3952917247349 -3225.2742448693607 976.9332300398536 -3220.9462890625 973.4560546875 C-3209.708657375945 964.4437536824945 -3198.235892813651 955.748196220495 -3186.68603515625 947.14111328125 C-3185.2063513001767 946.0384020334969 -3183.727540845161 944.9345180365867 -3182.24951171875 943.82958984375 C-3170.5385315135977 935.0827893994463 -3158.6352586703892 926.6788591332041 -3146.5087890625 918.5185546875 C-3145.50203125 917.8379296875 -3144.4952734375 917.1573046875 -3143.4580078125 916.4560546875 C-3141.0993131611676 914.8722134165619 -3138.7331229432225 913.3006834031992 -3136.35986328125 911.73876953125 C-3134.961495200677 910.8169753256706 -3133.565010184526 909.8923236181869 -3132.16943359375 908.96630859375 C-3118.273407880354 899.7531169128396 -3104.1541299961445 891.01154317296 -3089.8212890625 882.4970703125 C-3083.3635937398435 878.6399680944274 -3076.947221963746 874.7144832024919 -3070.5252380371094 870.7983093261719 C-3063.8057527824253 866.7025717722097 -3057.0614616694475 862.660719589098 -3050.248291015625 858.721923828125 C-3029.6088008135403 846.7552981240681 -3009.065087250497 833.5433408556731 -2990.5087890625 818.5185546875 C-2989.917431640625 818.039990234375 -2989.32607421875 817.56142578125 -2988.716796875 817.068359375 C-2980.5241670467535 810.3573287345264 -2972.899919153506 803.0993315687126 -2965.3837890625 795.6435546875 C-2964.5777221679687 794.8468334960937 -2963.7716552734373 794.0501123046874 -2962.941162109375 793.229248046875 C-2959.525427205348 789.794782971488 -2956.327868375874 786.445900862027 -2953.5791015625 782.4482421875 C-2952.8958984375 781.4814453125 -2952.2126953125 780.5146484375 -2951.5087890625 779.5185546875 C-2950.8487890625 779.5185546875 -2950.1887890625 779.5185546875 -2949.5087890625 779.5185546875 C-2949.16267578125 778.733515625 -2949.16267578125 778.733515625 -2948.8095703125 777.9326171875 C-2947.0668292699793 774.6983410184979 -2944.8903778606063 771.8290515510342 -2942.6962890625 768.8935546875 C-2941.7007850342115 767.5503323484099 -2940.7060252944184 766.2065581536081 -2939.7119140625 764.8623046875 C-2938.927841796875 763.8026953125 -2938.927841796875 763.8026953125 -2938.1279296875 762.7216796875 C-2935.928104145292 759.7284309400803 -2933.7625679126677 756.7111424422121 -2931.596923828125 753.693115234375 C-2922.9511046018606 741.6483036248221 -2914.000557972585 729.9150263889065 -2904.5087890625 718.5185546875 C-2904.090166015625 718.013564453125 -2903.67154296875 717.50857421875 -2903.240234375 716.98828125 C-2893.1313178102414 704.8111208217325 -2882.4285485962105 693.3562473135886 -2871.2587890625 682.1435546875 C-2870.4190454101563 681.2991381835938 -2869.5793017578126 680.4547216796875 -2868.714111328125 679.584716796875 C-2863.806931835348 674.6901434365764 -2858.7988776947054 669.9961309801181 -2853.5087890625 665.5185546875 C-2852.883916015625 664.9869775390625 -2852.25904296875 664.455400390625 -2851.615234375 663.90771484375 C-2827.9799806131587 643.9408367940465 -2802.6686610732104 626.0166490157941 -2776.5087890625 609.5185546875 C-2775.5895263671873 608.9371875 -2774.670263671875 608.3558203125 -2773.72314453125 607.7568359375 C-2761.10935406061 599.7897991434119 -2748.4200637148942 591.9929431863109 -2735.5087890625 584.5185546875 C-2732.444675376864 582.7416390822227 -2729.381370095086 580.9633584348763 -2726.3193359375 579.182861328125 C-2724.262117975193 577.9869693719556 -2722.2036131013824 576.7932872168376 -2720.1435546875 575.602294921875 C-2713.488245413472 571.7366061318314 -2706.9836557851595 567.6778277468052 -2700.5087890625 563.5185546875 C-2696.4529915133526 560.9453469625787 -2692.3881622125937 558.3867118160624 -2688.3212890625 555.8310546875 C-2687.29326171875 555.18072265625 -2686.265234375 554.530390625 -2685.2060546875 553.8603515625 C-2676.7618795683175 548.5604566220534 -2676.7618795683175 548.5604566220534 -2672.2744140625 546.4013671875 C-2668.037216264227 544.3622394799454 -2664.2878656742278 541.7794275354161 -2660.4462890625 539.0810546875 C-2658.747693202633 537.9043737566421 -2657.048426696623 536.7286605788468 -2655.3486328125 535.5537109375 C-2654.4164794921876 534.9080517578125 -2653.484326171875 534.262392578125 -2652.52392578125 533.59716796875 C-2646.8756016714315 529.7032544893173 -2641.190649655164 525.8632736857119 -2635.5087890625 522.0185546875 C-2634.2084925380714 521.138188845449 -2632.908199643096 520.2578176426907 -2631.60791015625 519.37744140625 C-2619.935899783866 511.47682668050436 -2608.254971608286 503.5893948672251 -2596.5712890625 495.7060546875 C-2595.643345336914 495.0799026489258 -2594.715401611328 494.45375061035156 -2593.7593383789063 493.8086242675781 C-2582.22175517526 486.0250414548418 -2570.6789095567774 478.2503529820459 -2559.056640625 470.593505859375 C-2554.9668328023627 467.8867953217988 -2550.9477551098526 465.1383165956302 -2547.0361328125 462.1787109375 C-2536.5181216585115 454.2486746039597 -2525.9974582533787 449.6286915451775 -2513.5087890625 445.5185546875 C-2512.6739599609373 445.2426953125 -2511.839130859375 444.9668359375 -2510.97900390625 444.6826171875 C-2507.6551593783415 443.5874889649297 -2504.330669487088 442.4943904921272 -2501.003433227539 441.40960693359375 C-2493.8799218090116 439.05321243971594 -2486.903816863299 436.39457061195475 -2479.9306640625 433.6279296875 C-2478.122716140747 432.9140030670166 -2478.122716140747 432.9140030670166 -2476.2782440185547 432.18565368652344 C-2472.3531835244044 430.6347516042896 -2468.4307389719534 429.0773033036714 -2464.5087890625 427.5185546875 C-2463.5200221061705 427.1257349205017 -2463.5200221061705 427.1257349205017 -2462.5112800598145 426.72497940063477 C-2452.6912535571355 422.82300752128646 -2442.8776322826925 418.9050782122925 -2433.06697845459 414.97960662841797 C-2430.780012256947 414.0645388888881 -2428.4929415162837 413.1497327469338 -2426.2058715820313 412.23492431640625 C-2402.058128266487 402.57429674993733 -2377.9483047972035 392.8252258516856 -2353.886184692383 382.9529571533203 C-2347.3420717026547 380.2681316101139 -2340.7937203893944 377.59386736942173 -2334.2431640625 374.9248046875 C-2311.4859511856544 365.64808264752895 -2288.790729358005 356.23186098137353 -2266.133041381836 346.71478271484375 C-2260.5225510389246 344.3595411168861 -2254.906759311413 342.0174658012567 -2249.2861328125 339.6865234375 C-2231.43788099415 332.28255754606124 -2213.6442444853374 324.76130099017934 -2195.895263671875 317.1220703125 C-2185.477338101552 312.63911013083344 -2175.0426311869587 308.19770191049355 -2164.595489501953 303.7832336425781 C-2152.307779139318 298.5906984541553 -2140.031892069832 293.37050953761184 -2127.7587890625 288.1435546875 C-2125.9949588012696 287.39236862182617 -2125.9949588012696 287.39236862182617 -2124.1954956054688 286.6260070800781 C-2099.564516503162 276.13338104544835 -2075.00219900695 265.49188991200805 -2050.4775390625 254.75341796875 C-2041.368859659152 250.765685959903 -2032.2557373318443 246.78834982251908 -2023.1337890625 242.8310546875 C-2022.5171237182617 242.5634735107422 -2021.9004583740234 242.2958923339844 -2021.2651062011719 242.02020263671875 C-2012.3905047154221 238.1720080461007 -2003.4883157940446 234.39233230180014 -1994.5712890625 230.6435546875 C-1986.9056819796367 227.41882653402376 -1979.3375937766978 224.08540021202694 -1971.8291015625 220.5107421875 C-1965.6597685626114 217.62473868230992 -1959.3867200383968 214.9670791055965 -1953.1337890625 212.2685546875 C-1951.8081050607857 211.6962086272291 -1950.4824214685102 211.12386161860366 -1949.15673828125 210.551513671875 C-1948.4999911499024 210.26798538208007 -1947.8432440185547 209.98445709228517 -1947.1665954589844 209.6923370361328 C-1946.5112380981445 209.409402923584 -1945.8558807373047 209.12646881103515 -1945.1806640625 208.8349609375 C-1944.5249038696288 208.5519059753418 -1943.8691436767579 208.2688510131836 -1943.1935119628906 207.9772186279297 C-1922.3086479635513 198.95695525834554 -1901.5446838612982 189.6571891636881 -1880.759765625 180.40966796875 C-1874.843555872177 177.77753601337423 -1868.9261523071486 175.14809229793403 -1863.0087890625 172.5185546875 C-1861.9452319335937 172.045791015625 -1860.8816748046875 171.57302734375 -1859.785888671875 171.0859375 C-1854.306604051583 168.6503383383707 -1848.8269311129836 166.21561844940905 -1843.3464965820313 163.78260803222656 C-1827.0995566317474 156.5696549806536 -1810.8592378621183 149.34223871358168 -1794.6337890625 142.0810546875 C-1793.852476196289 141.73143676757812 -1793.0711633300782 141.38181884765626 -1792.2661743164063 141.0216064453125 C-1784.172833299411 137.39978788395115 -1776.0806157957145 133.77547402369072 -1767.990234375 130.1470489501953 C-1764.6658081945416 128.65631003971214 -1761.3409581272078 127.16651800550954 -1758.0160522460938 125.67684936523438 C-1756.3957695482252 124.9506043167714 -1754.7756904704506 124.2239048002719 -1753.1558227539063 123.49673461914063 C-1745.5353650421466 120.07603619667998 -1737.9129728702437 116.66875366058099 -1730.2236328125 113.4052734375 C-1729.1555639648439 112.95079833984374 -1728.0874951171875 112.49632324218749 -1726.987060546875 112.028076171875 C-1725.0882429923363 111.22505955052361 -1723.185739707342 110.4306650702658 -1721.278564453125 109.647705078125 C-1716.2338915042938 107.51709416429014 -1712.6087073104748 105.13761832614438 -1708.5087890625 101.5185546875 C-1707.8487890625 101.5185546875 -1707.1887890625 101.5185546875 -1706.5087890625 101.5185546875 C-1706.5087890625 100.8585546875 -1706.5087890625 100.1985546875 -1706.5087890625 99.5185546875 C-1705.8487890625 99.5185546875 -1705.1887890625 99.5185546875 -1704.5087890625 99.5185546875 C-1704.1787890625 98.52855468749999 -1703.8487890625 97.53855468749998 -1703.5087890625 96.5185546875 C-1701.5712890625 94.33105468750014 -1701.5712890625 94.33105468750014 -1699.5087890625 92.5185546875 C-1698.8487890625 92.5185546875 -1698.1887890625 92.5185546875 -1697.5087890625 92.5185546875 C-1697.5087890625 91.8585546875 -1697.5087890625 91.1985546875 -1697.5087890625 90.5185546875 C-1696.8487890625 90.5185546875 -1696.1887890625 90.5185546875 -1695.5087890625 90.5185546875 C-1695.5087890625 89.8585546875 -1695.5087890625 89.1985546875 -1695.5087890625 88.5185546875 C-1694.8487890625 88.5185546875 -1694.1887890625 88.5185546875 -1693.5087890625 88.5185546875 C-1693.1220703125 87.64457031250001 -1693.1220703125 87.64457031250001 -1692.7275390625 86.7529296875 C-1691.410448896569 84.33826438329336 -1689.9579052211664 82.70115291261833 -1688.0087890625 80.7685546875 C-1687.0961328125 79.84816406249999 -1687.0961328125 79.84816406249999 -1686.1650390625 78.9091796875 C-1684.5087890625 77.5185546875 -1684.5087890625 77.5185546875 -1682.5087890625 77.5185546875 C-1682.5087890625 76.8585546875 -1682.5087890625 76.1985546875 -1682.5087890625 75.5185546875 C-1678.4283963076625 72.0689472860674 -1673.9073656582354 69.5386068437155 -1668.8837890625 67.7685546875 C-1658.2109480605222 63.782915625824046 -1648.8152560002782 56.14760102064406 -1640.5087890625 48.5185546875 C-1631.445760919415 40.59632728969859 -1622.9679637023273 33.901367600634515 -1611.3837890625 30.0810546875 C-1605.770287080316 28.22005674775417 -1602.1652143664637 26.110797437035302 -1598.1572265625 21.7763671875 C-1596.5087890625 20.5185546875 -1596.5087890625 20.5185546875 -1594.6103515625 20.4912109375 C-1591.5113312159979 22.00615954554833 -1589.7694188510882 24.23738568898598 -1587.5087890625 26.8310546875 C-1586.527760249081 27.931838156274836 -1585.5446197066185 29.030742616379904 -1584.5595703125 30.1279296875 C-1584.0550634765623 30.69189453125 -1583.550556640625 31.255859375 -1583.03076171875 31.8369140625 C-1575.1297908621727 40.566764441085866 -1566.6186456226337 48.11799973392954 -1557.23046875 55.20703125 C-1555.579255898288 56.46487518638649 -1553.9514134324286 57.74717505019241 -1552.3291015625 59.0419921875 C-1539.823271011041 68.92814751122187 -1526.2660341829014 77.25857178056346 -1512.53662109375 85.32666015625 C-1511.1115958350724 86.16424422955413 -1509.6882378751766 87.00466829096325 -1508.26611328125 87.84716796875 C-1498.2643620091535 93.76775678936681 -1488.204854356586 99.40600996205245 -1477.73046875 104.44677734375 C-1475.2993880685572 105.61957340875367 -1472.8769763077207 106.8093728741386 -1470.4541015625 107.9990234375 C-1444.6974212072573 120.56634824410543 -1418.3155235022336 131.42701066595296 -1391.5087890625 141.5185546875 C-1390.551982421875 141.8825537109375 -1389.59517578125 142.246552734375 -1388.609375 142.62158203125 C-1370.8716081078787 149.35773360903855 -1352.7762164811925 155.06317108326354 -1334.70263671875 160.81939697265625 C-1332.6635254369971 161.46924172372675 -1330.6251171086146 162.1212391198551 -1328.5869140625 162.77392578125 C-1260.7363798234105 184.44132412128107 -1191.0267220492105 200.16029686085528 -1121.02685546875 213.052978515625 C-1118.7009605106227 213.48302327858295 -1116.3761373882858 213.91829424947917 -1114.0517578125 214.3564453125 C-1087.0324251134248 219.44401269353756 -1059.8152105324543 223.2575448624337 -1032.5934448242188 227.08367919921875 C-1029.8252804075764 227.473935663901 -1027.0577619937526 227.86835094351352 -1024.29052734375 228.26513671875 C-993.4781314041729 232.6719720171311 -962.5068961455972 235.75408536638884 -931.5087890625 238.5185546875 C-930.8491188812254 238.5774864959717 -930.1894486999513 238.6364183044434 -929.5097885131836 238.69713592529297 C-884.9394711039545 242.6651852417159 -840.3746242432503 244.43725070774855 -795.649169921875 245.618896484375 C-794.6049506187437 245.64658394813534 -793.5607313156129 245.67427141189575 -792.4848690032959 245.70279788970947 C-787.5704916587902 245.83236493791594 -782.6560777281829 245.9580635706577 -777.7413940429688 246.07545471191406 C-768.8659889121245 246.29430440928297 -760.015144506127 246.61764269034802 -751.1542739868164 247.17598724365234 C-746.2004507794682 247.4873240071663 -741.2647274909318 247.6894274224556 -736.3017578125 247.7216796875 C-735.5360899353027 247.7286940002441 -734.7704220581054 247.73570831298832 -733.9815521240234 247.74293518066406 C-731.553068516278 247.7601283928817 -729.1248311170634 247.7667794814488 -726.6962890625 247.7685546875 C-725.8521746826173 247.76922943115233 -725.0080603027345 247.76990417480465 -724.1383666992188 247.77059936523438 C-682.4309364255355 247.71815506787755 -643.7877472534869 238.4469324731985 -605.1349792480469 223.28860473632813 C-577.502085825849 212.46673249756054 -549.3234558128206 203.63002961176485 -520.5087890625 196.5185546875 C-519.7392791748048 196.32815612792967 -518.9697692871096 196.13775756835938 -518.1769409179688 195.94158935546875 C-495.1548879510633 190.25497943639837 -472.05100575821643 184.9409151165416 -448.9111318588257 179.75825595855713 C-400.95337848695726 169.0160407081031 -354.14859439128577 156.09391079632948 -307.43505859375 140.79736328125 C-303.22445410144246 139.42220866885287 -299.00539974727417 138.07387765487218 -294.7861328125 136.7255859375 C-274.0898703605976 130.09955211405793 -253.55278478543323 123.08037451680391 -233.06790161132813 115.82815551757813 C-228.8271031341369 114.32884727161422 -224.58039791186684 112.85229694720488 -220.3173828125 111.4169921875 C-194.630806527829 102.7596992699971 -169.41162463329465 92.55999773368717 -144.4462890625 82.0185546875 C-143.47070037841786 81.60896514892578 -143.47070037841786 81.60896514892578 -142.47540283203125 81.19110107421875 C-133.84500062783036 77.55769760829159 -125.45846609832779 73.56389159561581 -117.109130859375 69.33056640625 C-113.61525081930677 67.56170939148473 -110.08039831920041 65.90069547116136 -106.516845703125 64.277099609375 C-94.43542253339638 58.75705306030079 -82.97379364877133 52.20663975664675 -71.5087890625 45.5185546875 C-70.63013183593739 45.00889160156251 -69.75147460937478 44.49922851562499 -68.84619140625 43.97412109375 C-41.79373016783893 29.444883548119776 -41.79373016783893 29.444883548119776 -22.0947265625 6.8349609375 C-17.104881762785226 -1.7171527432945481 -8.972833139631803 -1.220305306989907 0 0 Z " fill="#000000" transform="translate(3719.5087890625,31.4814453125)"/>
</svg>
