<?xml version="1.0" encoding="UTF-8"?>
<!-- Generator: visioncortex VTracer 0.6.4 -->
<svg version="1.1" xmlns="http://www.w3.org/2000/svg" width="2500" height="1923">
<path d="M0 0 C1.1060005187987372 0.0008157348632806816 1.1060005187987372 0.0008157348632806816 2.234344482421875 0.00164794921875 C16.704250528284547 0.05025361279235696 30.671597955530842 1.5334364322661571 44.875 4.375 C45.881918945312464 4.573354492187498 46.88883789062504 4.771708984375 47.92626953125 4.97607421875 C102.30718901770717 16.04600390206606 151.08212748539825 41.76964695297511 195.67578125 74.12890625 C202.2560467853026 78.8964844948845 208.93421658318346 83.36925384210265 215.853515625 87.632568359375 C220.33811639611145 90.39882606364966 224.75266017414663 93.2472033761286 229.125 96.1875 C237.50886609031772 101.8218968530604 245.98040457808395 107.31828289989295 254.45849609375 112.8095703125 C256.65681588623 114.23365866462987 258.8539971988374 115.65948181527392 261.05078125 117.0859375 C270.5595970541151 123.25522390245101 280.1050384215064 129.36661146277027 289.655029296875 135.471923828125 C295.5725129667768 139.2564393149414 301.4823183452413 143.05198944962157 307.375 146.875 C324.0468117330563 157.68630478754613 340.80483259588743 168.3637392335265 357.61865234375 178.95263671875 C359.8892344933072 180.38397318307807 362.1578203940494 181.81842043764536 364.42578125 183.25390625 C394.41337884041855 202.23154928720655 424.5892855468571 220.90657564863648 454.98004150390625 239.23193359375 C456.9396397282462 240.4139916201434 458.8982763793083 241.59763351064703 460.85693359375 242.78125 C477.57567692886323 252.8744682786692 494.31425631848015 262.79346055677587 511.875 271.375 C512.6869482421876 271.7733203125 513.4988964843751 272.171640625 514.33544921875 272.58203125 C533.9683666203232 282.09427318327187 554.7926284167943 288.7793815781573 575.49462890625 295.54052734375 C581.4346096669287 297.4979417651375 587.2182212289665 299.68359977838287 593 302.0625 C599.74083568643 304.79074905626373 606.5503490080218 306.7606969000876 613.625 308.4375 C615.0193627929689 308.78010864257817 615.0193627929689 308.78010864257817 616.44189453125 309.129638671875 C621.6304984487729 310.2831366506104 624.9309801230711 310.71925748686425 629.875 308.375 C630.6187890624999 308.03090087890627 631.362578125 307.6868017578125 632.12890625 307.332275390625 C633.9276524865056 306.4962979339031 635.7216473940091 305.6500493296038 637.51171875 304.795654296875 C673.5279730738594 287.6732209708507 723.5077453099141 268.38119741664434 763.5 282.5625 C764.8805859375 283.10970703124997 764.8805859375 283.10970703124997 766.2890625 283.66796875 C770.15934955136 284.72615901630843 772.8183844838115 283.90558316347364 776.369140625 282.12255859375 C777.2476367187501 281.5948486328125 778.1261328124999 281.067138671875 779.03125 280.5234375 C780.0388940429686 279.926923828125 781.0465380859375 279.33041015625 782.084716796875 278.7158203125 C783.1705102539063 278.067099609375 784.2563037109376 277.41837890625 785.375 276.75 C799.5875921415704 268.38054568647453 814.136496046548 260.77174918559433 828.875 253.375 C829.8972265625 252.85921386718746 830.919453125 252.34342773437504 831.97265625 251.81201171875 C891.4685278704412 221.9551453845905 891.4685278704412 221.9551453845905 916.5234375 228.015625 C944.7824232020819 239.53870654842171 965.7688523263039 285.1501395526866 979.875 310.375 C980.387724609375 311.2862060546875 980.90044921875 312.197412109375 981.4287109375 313.13623046875 C995.7040490702593 338.6162078051377 1008.7352014766982 364.8625991878144 1020.5625 391.5625 C1020.8981396484376 392.318122253418 1021.2337792968749 393.07374450683596 1021.57958984375 393.8522644042969 C1024.6210630661567 400.71463483963237 1027.6227150487216 407.5707390430397 1030.2578125 414.6015625 C1033.4214630520858 423.00433542449065 1035.7348772635048 428.6611823589425 1044.14453125 432.94140625 C1058.7845365328753 440.6279326288487 1067.7697645444541 460.59989187776455 1072.62548828125 475.71044921875 C1075.6330636889184 485.74993521446225 1077.9449377868757 495.92110072448213 1078.875 506.375 C1078.9819921875 507.55449218750005 1079.088984375 508.733984375 1079.19921875 509.94921875 C1079.617717265002 518.25408928104 1079.617717265002 518.25408928104 1077.6015625 521.296875 C1075.4834228484156 523.1360401608879 1073.7416066697808 524.375 1070.875 524.375 C1072.0905683913015 528.8621969590469 1073.3176693010062 533.3460193908073 1074.555419921875 537.8271484375 C1074.9745983604146 539.3510215404489 1075.3906492916622 540.8757586188896 1075.803466796875 542.4013671875 C1076.3984665102835 544.5980688971714 1077.0047601425986 546.7913858526903 1077.61328125 548.984375 C1077.7946614074708 549.6636907958984 1077.9760415649414 550.3430065917969 1078.1629180908203 551.0429077148438 C1079.1958445591786 554.7184253519923 1080.3357930639602 557.5004261101436 1082.875 560.375 C1083.865 558.065 1084.855 555.755 1085.875 553.375 C1094.3529870155837 556.1910624709056 1100.4454017260493 564.5531970404209 1105.875 571.375 C1105.875 572.035 1105.875 572.695 1105.875 573.375 C1106.7598608398437 573.4430383300781 1106.7598608398437 573.4430383300781 1107.66259765625 573.512451171875 C1142.9747098873027 576.5901123296273 1186.598883836524 590.7332476612877 1214.875 612.375 C1215.712890625 612.9950390625 1216.55078125 613.615078125 1217.4140625 614.25390625 C1257.4910317124572 644.9630390056753 1269.8584885203013 696.8364300727189 1276.5625 744.4375 C1280.5196472765874 774.6019271824358 1281.458151688379 805.1747223361988 1280.4375 835.5625 C1280.41365234375 836.2754220581055 1280.3898046875 836.9883441162109 1280.365234375 837.7228698730469 C1280.1758094496718 843.2917866917055 1279.9707207508102 848.8601182570767 1279.7587890625 854.42822265625 C1279.4730154017525 862.6228560311871 1279.268630460496 869.5676462844884 1282.8984375 877.140625 C1284.6227984659881 881.0859628901807 1285.3417026129425 885.0857807477187 1284.875 889.375 C1283.4901813984138 891.8760982348041 1281.95780690709 893.3417837335552 1279.875 895.375 C1278.5693094648477 898.1963579576595 1278.5693094648477 898.1963579576595 1279.625 900.170654296875 C1280.0375 900.8400805664063 1280.45 901.5095068359375 1280.875 902.19921875 C1281.3426879882813 902.9689501953125 1281.8103759765625 903.738681640625 1282.292236328125 904.53173828125 C1282.8145483398437 905.3668896484374 1283.3368603515626 906.202041015625 1283.875 907.0625 C1284.676837158203 908.3693676757813 1284.676837158203 908.3693676757813 1285.494873046875 909.70263671875 C1287.2776430978624 912.6001168789712 1289.0761150455085 915.4875013201163 1290.875 918.375 C1292.1735854953645 920.4776124005053 1293.4717560751212 922.5804811065599 1294.76953125 924.68359375 C1296.0745217423334 926.7896818924862 1297.3804939938198 928.8951620611527 1298.6875 931 C1299.6011230468748 932.4727941894531 1299.6011230468748 932.4727941894531 1300.533203125 933.975341796875 C1304.4574471558026 940.2499779161592 1308.5696464042126 946.3555615756435 1312.875 952.375 C1314.195 949.735 1315.515 947.095 1316.875 944.375 C1322.3030658191472 944.777992765361 1325.5453123496081 946.9430643778796 1329.625 950.3125 C1330.236982421875 950.8083056640625 1330.84896484375 951.304111328125 1331.4794921875 951.81494140625 C1352.7644124711987 969.31451311147 1369.972873220234 993.6576919208434 1373.12890625 1021.625 C1373.25 1023.75 1373.25 1023.75 1372.875 1027.375 C1370.8125000000005 1029.6249999999998 1370.8125000000005 1029.6249999999998 1368.875 1031.375 C1369.2472266374668 1034.385281466866 1370.349711313364 1036.328919664362 1372.17578125 1038.703125 C1372.8916943359375 1039.6445434570314 1372.8916943359375 1039.6445434570314 1373.6220703125 1040.60498046875 C1374.138662109375 1041.2715869140625 1374.65525390625 1041.938193359375 1375.1875 1042.625 C1376.272148244173 1044.0494693993792 1377.3567832514877 1045.4739488779137 1378.44140625 1046.8984375 C1379.5857472087164 1048.3907709371335 1380.7302813153494 1049.8829562840203 1381.875 1051.375 C1384.132336786689 1054.327826870393 1386.3806178967216 1057.287320709462 1388.625 1060.25 C1389.150051269531 1060.933525390625 1389.6751025390622 1061.61705078125 1390.216064453125 1062.3212890625 C1393.875 1067.1491449878417 1393.875 1067.1491449878417 1393.875 1069.375 C1394.62265625 1068.8580859375 1395.3703125000002 1068.341171875 1396.140625 1067.80859375 C1397.12546875 1067.1498828125 1398.1103125 1066.491171875 1399.125 1065.8125 C1400.09953125 1065.1512109375 1401.0740624999999 1064.489921875 1402.078125 1063.80859375 C1404.875 1062.375 1404.875 1062.375 1406.73779296875 1062.5458984375 C1415.6699986686426 1066.0110310119614 1423.7148250875111 1075.8140470210021 1430.46435546875 1082.538818359375 C1431.993954465338 1084.0565015609182 1433.541306756757 1085.5544109350021 1435.08984375 1087.052734375 C1449.0557897810895 1100.7905382639733 1459.5693132227047 1118.1799011024013 1460.125 1138.25 C1460.149262913747 1141.5376248126906 1459.3928670569594 1143.4817072335316 1457.875 1146.375 C1458.4858595275878 1146.9836389160157 1459.096719055176 1147.5922778320312 1459.726089477539 1148.2193603515625 C1465.5098990681936 1153.9830517011187 1471.2912391791256 1159.749206560378 1477.0698862075806 1165.5180740356445 C1480.0401282663165 1168.4831191721105 1483.0112840919696 1171.4472359407603 1485.984619140625 1174.4091796875 C1488.8592317038783 1177.2728491789394 1491.7313248952114 1180.1390240832038 1494.6017589569092 1183.0068817138672 C1495.6919796785937 1184.09526862147 1496.7830734244912 1185.1827818258498 1497.875093460083 1186.2693634033203 C1503.236048788584 1191.6047030781199 1508.541871156061 1196.9428248792258 1513.4456024169922 1202.7096862792969 C1515.4065474514946 1204.9942771519286 1517.4801187336438 1207.1633547035215 1519.55419921875 1209.3447265625 C1526.4952495890448 1216.65904448457 1532.8360541238308 1224.3041901973054 1538.875 1232.375 C1539.60203125 1233.3405078125 1540.3290625 1234.306015625 1541.078125 1235.30078125 C1545.7722790568782 1241.7409316329122 1545.7722790568782 1241.7409316329122 1546.3046875 1245.02734375 C1546.4928906250002 1245.8020703125 1546.68109375 1246.576796875 1546.875 1247.375 C1548.192643546809 1248.072164045096 1549.528617755504 1248.7350960432007 1550.875 1249.375 C1552.4873046874982 1250.6843261718734 1552.4873046874982 1250.6843261718734 1554.046875 1252.16796875 C1554.9132458496092 1252.9840661621095 1554.9132458496092 1252.9840661621095 1555.797119140625 1253.816650390625 C1556.400319824219 1254.3927807617188 1557.0035205078125 1254.9689111328125 1557.625 1255.5625 C1558.88852862995 1256.75344742387 1560.1528447413516 1257.9435599583303 1561.41796875 1259.1328125 C1562.0204443359376 1259.700322265625 1562.622919921875 1260.26783203125 1563.24365234375 1260.8525390625 C1565.105962604654 1262.5905466630682 1567.0069849093265 1264.2756861532105 1568.9375 1265.9375 C1574.098820309463 1270.3989802675019 1579.0775722889757 1275.0608322351882 1584.07470703125 1279.7041015625 C1585.9100875028294 1281.4075656183027 1587.7498017389753 1283.106261036393 1589.58984375 1284.8046875 C1596.3044122574747 1291.0191795321314 1602.921165309741 1297.3009518432323 1609.3125 1303.849365234375 C1611.9779039852956 1306.5614137894136 1614.70769624083 1309.1244179866676 1617.59375 1311.6015625 C1622.7843035837059 1316.0932096180516 1627.5963224302286 1320.9505893357116 1632.4375 1325.8125 C1633.34435546875 1326.71548828125 1634.2512109375002 1327.6184765625 1635.185546875 1328.548828125 C1639.7198381938183 1333.089695645876 1644.0987035084813 1337.689278524922 1648.277099609375 1342.558837890625 C1650.8390430516774 1345.4707244096912 1653.6024492739716 1348.1655758058823 1656.375 1350.875 C1660.394776112988 1354.8499226789588 1664.2867176948234 1358.8501969834483 1667.9453125 1363.1640625 C1670.0861371011251 1365.6169101199125 1672.303519628339 1367.9858213099517 1674.5322265625 1370.358642578125 C1679.8421596926419 1376.0119554089797 1684.9230618792485 1381.7500336564433 1689.7734375 1387.80859375 C1691.8550142677004 1390.3505936317456 1694.0253838003664 1392.7702933519881 1696.25 1395.1875 C1701.2523204258064 1400.6909164270096 1705.7964609024648 1406.5167478239605 1710.3388671875 1412.3974609375 C1711.9451133677508 1414.4652603748855 1713.568478678224 1416.5186786277084 1715.1953125 1418.5703125 C1734.3150851273826 1442.7507251155735 1749.6204820305811 1468.123590142578 1763.10791015625 1495.8623046875 C1763.5621435546873 1496.793330078125 1764.016376953125 1497.72435546875 1764.484375 1498.68359375 C1764.8759277343752 1499.4962670898437 1765.26748046875 1500.3089404296875 1765.6708984375 1501.146240234375 C1766.9035535392204 1503.4278518368903 1768.1782506049253 1505.412396588192 1769.875 1507.375 C1770.5349999999999 1507.375 1771.1950000000002 1507.375 1771.875 1507.375 C1773.376459956296 1509.3871398192316 1774.73152699392 1511.3779008688343 1776.0625 1513.5 C1776.463962402344 1514.1388916015626 1776.8654248046873 1514.777783203125 1777.279052734375 1515.43603515625 C1789.6092952952445 1535.3633534535106 1796.4286908963395 1557.2797998386995 1799.875 1580.375 C1800.137727050781 1582.001756591797 1800.137727050781 1582.001756591797 1800.40576171875 1583.661376953125 C1801.9511563026772 1593.9476942483714 1802.2734826716705 1604.0512012930624 1802.25 1614.4375 C1802.2497885131834 1615.3073956298829 1802.2495770263672 1616.1772912597655 1802.2493591308594 1617.0735473632813 C1802.2098847183856 1633.4720788845418 1800.704312390836 1649.2045335052287 1797.875 1665.375 C1797.687763671875 1666.4950341796875 1797.50052734375 1667.615068359375 1797.3076171875 1668.76904296875 C1792.3317261918332 1698.2677404516962 1784.145913746749 1726.9773245718998 1769.875 1753.375 C1769.5556347656252 1753.9736083984376 1769.23626953125 1754.572216796875 1768.9072265625 1755.18896484375 C1760.3148246646042 1771.1917681754153 1749.715727100031 1784.55511823617 1736.875 1797.375 C1736.3245703124999 1797.960234375 1735.7741406250002 1798.54546875 1735.20703125 1799.1484375 C1730.581179952559 1804.0240134176113 1725.4326303573057 1807.633588713709 1719.875 1811.375 C1718.6377166653706 1812.2411997232057 1717.4021498607203 1813.1098546009216 1716.16796875 1813.98046875 C1663.471979202382 1851.0161917960281 1597.1711409589102 1864.2659142018772 1534.125 1870.6875 C1532.9295103454588 1870.8094674682618 1532.9295103454588 1870.8094674682618 1531.7098693847656 1870.9338989257813 C1514.9661823673732 1872.6167579225882 1498.3042675749334 1873.5329153699427 1481.48046875 1873.578125 C1479.8534848406125 1873.585148629071 1478.2265012029106 1873.592235433615 1476.5995178222656 1873.599380493164 C1471.4205078868076 1873.6187998978987 1466.241542665679 1873.6238157693863 1461.0625 1873.625 C1459.7372612953186 1873.6256627845764 1459.7372612953186 1873.6256627845764 1458.3852500915527 1873.6263389587402 C1431.626940564921 1873.633354920562 1405.0176635070989 1873.3340978695228 1378.371826171875 1870.6282348632813 C1375.7634909772573 1870.3636904533255 1373.1543022071103 1870.1089945970025 1370.544921875 1869.85498046875 C1342.497980793072 1867.0904457216338 1314.6620746705576 1863.0536817217298 1286.875 1858.375 C1285.6486785888674 1858.1693743896485 1285.6486785888674 1858.1693743896485 1284.3975830078125 1857.9595947265625 C1223.956359109191 1847.7892408043383 1164.415952765115 1832.4078097554077 1105.875 1814.375 C1104.9644787597656 1814.09462890625 1104.0539575195312 1813.8142578125 1103.1158447265625 1813.525390625 C1045.0307280582133 1795.603587001961 988.0291141177365 1774.637462119252 931.875 1751.375 C931.0429302978516 1751.0306188964844 930.210860595703 1750.6862377929688 929.3535766601563 1750.3314208984375 C908.9287835558453 1741.8721033464037 888.6273547922644 1733.1821126949046 868.5048828125 1724.0244140625 C865.364810143682 1722.597569096766 862.2215524470498 1721.178255729201 859.0762939453125 1719.7629089355469 C849.9905561301177 1715.674048300561 840.9265924277097 1711.53886879644 831.875 1707.375 C831.2089978027343 1707.069169921875 830.5429956054688 1706.76333984375 829.8568115234375 1706.4482421875 C805.2081509379982 1695.1197026373259 780.9488902392038 1683.003884183997 756.6875 1670.875 C755.8955158615113 1670.4792691421508 755.1035317230226 1670.0835382843018 754.2875480651855 1669.6758155822754 C720.613546382958 1652.8489986669956 720.613546382958 1652.8489986669956 704.8727722167969 1644.439697265625 C702.1385595747963 1642.9825197660587 699.3956501158059 1641.5420983320084 696.6529235839844 1640.1010284423828 C689.8976214885772 1636.551120077392 683.1635036583602 1632.9631111046956 676.4437408447266 1629.3463897705078 C672.7027676877717 1627.3371695717851 668.9394791816492 1625.3865911842195 665.14453125 1623.48046875 C654.7363757850708 1618.095448426331 654.7363757850708 1618.095448426331 652.4140625 1613.45703125 C651.6875 1610.3750000000002 651.6875 1610.3750000000002 651.3125 1607.328125 C649.2628501890165 1593.492988775862 634.6558289222783 1584.5366579854235 624.390625 1576.8125 C620.0525972687847 1573.535706520627 615.8273887256082 1570.135705475581 611.625 1566.6875 C605.8520200417577 1561.958210720841 600.0045803221733 1557.354052128007 594.07421875 1552.82421875 C584.863375661743 1545.7879614262008 575.820964228817 1538.5464524074514 566.84326171875 1531.216064453125 C562.4980525770716 1527.674219855295 558.1106908663496 1524.1937656122677 553.6875 1520.75 C547.9905743465731 1516.3080562730522 542.4634657640177 1511.6924053038442 536.96875 1507.00390625 C533.1931549044264 1503.7849995834183 529.3654684118696 1500.6329521506009 525.49609375 1497.52734375 C523.7184913818382 1496.067643444699 521.9816617650542 1494.5571171815805 520.28515625 1493.00390625 C519.4485546875001 1492.2601171875 518.6119531249999 1491.516328125 517.75 1490.75 C517.0255468749999 1490.077109375 516.3010937500001 1489.40421875 515.5546875 1488.7109375 C507.7573088936433 1484.8236146379388 494.9559159272969 1490.331256628295 486.75 1492.3125 C485.9153421020508 1492.512626953125 485.08068420410154 1492.71275390625 484.2207336425781 1492.9189453125 C478.1011206567591 1494.3865719323333 471.9868132644149 1495.8752488302914 465.875 1497.375 C465.0998907470703 1497.5649151611328 464.32478149414055 1497.7548303222657 463.52618408203125 1497.9505004882813 C410.49970502378324 1510.968633788798 358.0754448752298 1526.406431604384 305.875 1542.375 C304.64892028808595 1542.7496740722656 303.4228405761719 1543.1243481445313 302.15960693359375 1543.5103759765625 C259.7063321830367 1556.4897122329262 217.48642473035693 1570.1325391356893 175.384765625 1584.2071228027344 C121.68188294249796 1602.1575038450687 121.68188294249796 1602.1575038450687 97.3125 1609.375 C81.54143857212694 1614.0464901985667 66.0961186056652 1618.9972573393075 50.875 1625.25 C1.3498219142467178 1645.4668646381826 -54.79053767428752 1655.9625908136488 -108.30078125 1656.68359375 C-109.4169432067871 1656.6989013671875 -110.53310516357419 1656.714208984375 -111.68309020996094 1656.72998046875 C-136.3138662138241 1657.0052503377112 -159.19598455691835 1656.5410325467028 -183.125 1650.375 C-185.41321543981962 1649.8362334069457 -187.70227966816333 1649.3010587304875 -189.9921875 1648.76953125 C-215.1562942978386 1642.7570606493664 -239.71538726629922 1634.392524685766 -263.125 1623.375 C-264.0365283203125 1622.9513818359376 -264.948056640625 1622.527763671875 -265.88720703125 1622.09130859375 C-290.41385808431045 1610.6075323743298 -314.19913484232615 1595.7496893918683 -334.08984375 1577.2578125 C-339.55346419456293 1572.2031770791184 -345.1080149308341 1568.8145751705242 -351.8134765625 1565.597412109375 C-382.31512057456496 1550.6246610746903 -410.8330580842644 1530.0106080291 -438.735107421875 1510.724365234375 C-447.6840260655161 1504.2716190342012 -447.6840260655161 1504.2716190342012 -457.625 1499.6875 C-483.00015121010426 1489.996683050129 -506.26879061099623 1467.6734522158874 -526.59375 1450.34375 C-528.5176202367869 1448.7049399768161 -530.460705410394 1447.1113876615586 -532.44873046875 1445.55029296875 C-540.2532113953184 1439.367109505542 -547.2663863834483 1432.5397373292801 -554.27783203125 1425.48291015625 C-556.2468314982007 1423.503185760289 -558.2263072690331 1421.5343924561696 -560.20703125 1419.56640625 C-567.3093874930597 1412.4714496856104 -573.9070499603325 1405.2646226388215 -580.125 1397.375 C-581.059226838511 1396.272703179196 -582.0006324102882 1395.1763960651201 -582.953125 1394.08984375 C-603.6172008524696 1370.3928148288614 -623.0722343582322 1342.2393470004927 -630.63720703125 1311.3544921875 C-631.0887191080676 1309.5222299658597 -631.5872989439055 1307.7017398548521 -632.08984375 1305.8828125 C-642.556454111548 1261.7976425900697 -626.1605106879474 1213.0354611344562 -603.56689453125 1175.538818359375 C-598.1324907326683 1166.8192548480836 -592.0205502417543 1158.9737494292697 -585.125 1151.375 C-584.05572265625 1150.160703125 -584.05572265625 1150.160703125 -582.96484375 1148.921875 C-571.398176124721 1135.8634315501522 -559.548896279714 1122.678337450751 -546.2890625 1111.3203125 C-543.6352350369439 1108.9347419646174 -541.130228586114 1106.4140194446256 -538.625 1103.875 C-535.0115319025732 1100.2180256731485 -531.3283825927729 1096.7207740070266 -527.41796875 1093.3828125 C-524.2566257745048 1090.6146177991404 -521.195880093541 1087.7427934163143 -518.125 1084.875 C-512.1680808069495 1079.3232603988902 -506.1144549898843 1073.9238131526097 -499.91796875 1068.640625 C-498.715973289113 1067.614785472214 -497.5141557699434 1066.5887374166455 -496.3125 1065.5625 C-495.4031066894531 1064.7864038085938 -495.4031066894531 1064.7864038085938 -494.475341796875 1063.99462890625 C-490.7340989923873 1060.7898492220636 -487.06376164149367 1057.522829475414 -483.4375 1054.1875 C-479.13105963242185 1050.2383625450157 -474.6863382086376 1046.5245086969717 -470.140625 1042.85546875 C-466.5782901869294 1039.9253099335494 -463.1004574683342 1036.9071904851774 -459.625 1033.875 C-454.52482224682103 1029.4315958232223 -449.3785241633027 1025.066096833581 -444.12109375 1020.80859375 C-441.790988876866 1018.9159531555247 -439.47225117501375 1017.0121123596559 -437.16015625 1015.09765625 C-429.94104257367366 1009.1214327639652 -422.6984443776514 1003.1887796138703 -415.3046875 997.429443359375 C-411.5939288257468 994.5381438923527 -407.92265045851354 991.6029708713676 -404.267578125 988.6416015625 C-394.7976881505183 980.9928442754187 -394.7976881505183 980.9928442754187 -390 977.5 C-389.358046875 977.028203125 -388.71609375 976.55640625 -388.0546875 976.0703125 C-386.125 975.375 -386.125 975.375 -383.5078125 976.0546875 C-381.1250000000001 977.3749999999999 -381.1250000000001 977.3749999999999 -379.125 980.375 C-379.125 981.365 -379.125 982.355 -379.125 983.375 C-353.9692204500274 972.0380395748705 -329.8383377206527 959.4967222567205 -306.125 945.375 C-305.09052734375 944.7622119140625 -304.0560546875 944.149423828125 -302.990234375 943.51806640625 C-260.7151986230013 918.470303561837 -219.96680755680768 890.8439928205404 -180.0625 862.1875 C-179.306142578125 861.6465771484375 -178.54978515624998 861.105654296875 -177.7705078125 860.54833984375 C-177.07151367187498 860.0438330078125 -176.37251953125002 859.539326171875 -175.65234375 859.01953125 C-175.04124755859374 858.5797192382812 -174.43015136718748 858.1399072265625 -173.800537109375 857.686767578125 C-172.10281581184591 856.357632137119 -170.61585868205043 854.9301468068631 -169.125 853.375 C-180.6221823592341 844.8316317645033 -180.6221823592341 844.8316317645033 -192.5625 836.9375 C-206.30090893877383 828.4036723616513 -218.96952748015917 818.0927506944703 -231.40576171875 807.7900390625 C-232.93671112124719 806.5299733514984 -234.48480647283594 805.2908053089067 -236.03515625 804.0546875 C-247.91277423677133 794.5735844825772 -258.7040565739119 783.8894803220005 -269.4801025390625 773.1951293945313 C-270.4762158506223 772.2070563518504 -271.47380484573847 771.2204682822876 -272.4730224609375 770.2355346679688 C-279.17331279968215 763.621058344468 -285.25810786575113 756.7326968184391 -291.125 749.375 C-292.6845018469381 747.5599197016669 -294.246338115093 745.746836743192 -295.8125 743.9375 C-313.2162351689466 722.9561809400643 -327.75432998354177 699.0169634611121 -337.125 673.375 C-337.40279296875 672.621220703125 -337.6805859375 671.86744140625 -337.966796875 671.0908203125 C-357.02990912514935 618.22993140238 -343.07888528304824 566.5877898137758 -320.445068359375 517.18603515625 C-317.42678860010295 510.79196937097925 -314.0666852968401 504.62476440260093 -310.51171875 498.515625 C-308.2541789898517 494.63580446302944 -306.1170406750383 490.69641112334546 -303.983154296875 486.74755859375 C-283.5744240992321 449.07260073448214 -283.5744240992321 449.07260073448214 -271.25 444.25 C-270.54875 443.96125 -269.8475 443.6725 -269.125 443.375 C-268.7634600121573 441.7142237579735 -268.4375829885436 440.04568272396705 -268.125 438.375 C-267.2384806124628 435.96863177446903 -266.3192053038613 433.6038596862681 -265.34375 431.234375 C-265.05857009887694 430.5318913269043 -264.7733901977539 429.8294076538086 -264.4795684814453 429.1056365966797 C-263.53259027842824 426.7768767292719 -262.57899146193813 424.4508947698601 -261.625 422.125 C-260.95314620574635 420.47868796649277 -260.28151974537667 418.8322831426556 -259.610107421875 417.185791015625 C-257.4567729189112 411.91208061265337 -255.29221213124498 406.643020204079 -253.125 401.375 C-252.58410736083982 400.0596426391602 -252.58410736083982 400.0596426391602 -252.03228759765625 398.71771240234375 C-242.90448633896244 376.52855116387383 -233.68822240820225 354.3806213848526 -224.125 332.375 C-223.66963867187502 331.325380859375 -223.21427734374998 330.27576171875 -222.7451171875 329.1943359375 C-217.57016473651817 317.28571041777076 -212.2860768179661 305.4282968790461 -206.875 293.625 C-206.12150268554683 291.98059936523435 -206.12150268554683 291.98059936523435 -205.352783203125 290.302978515625 C-202.26843440282835 283.6443205871396 -199.01065023864618 277.22811029115275 -195.13671875 270.98828125 C-193.529013405321 266.83555972262445 -194.4558826806827 263.2597908648096 -195.9140625 259.15234375 C-196.4732281793934 257.9216566705875 -197.0357545711105 256.69249122873737 -197.6015625 255.46484375 C-199.06337734091153 249.62849345233076 -195.8281208187709 244.00284442537634 -193.43359375 238.83203125 C-193.0569407653809 238.00366760253905 -192.68028778076172 237.1753039550781 -192.29222106933594 236.32183837890625 C-191.05585952758844 233.60719209037063 -189.80937632130787 230.8973308100054 -188.5625 228.1875 C-187.6942351971178 226.2879481615507 -186.82656632980888 224.38812382217372 -185.95947265625 222.488037109375 C-184.19549163414257 218.62513187789077 -182.42754487746822 214.7640776224481 -180.65673828125 210.904296875 C-178.3895055343135 205.9588894354784 -176.14207098411254 201.00478671584807 -173.90234375 196.046875 C-165.30326866707543 177.03790577328238 -156.3671433932484 158.2103329860151 -147.150390625 139.4931640625 C-145.82559209226406 136.8025922155641 -144.50639383587168 134.10941813371386 -143.193359375 131.4130859375 C-125.59962980543219 95.29147932211131 -125.59962980543219 95.29147932211131 -115.1875 83.6875 C-109.7128401449578 77.45801382579982 -106.3122999705613 70.39736887091162 -102.5927734375 63.02587890625 C-96.23781803207021 50.49374337522073 -88.9461683399253 39.50251671016147 -79.125 29.375 C-78.21041015624996 28.3501953125 -78.21041015624996 28.3501953125 -77.27734375 27.3046875 C-66.7842356867119 15.942723355038382 -52.32704463033656 9.120666191027894 -37.75 4.6875 C-36.76132934570319 4.3834423828125 -36.76132934570319 4.3834423828125 -35.752685546875 4.0732421875 C-24.014531791008494 0.6843258844446893 -12.152650387646759 -0.034029002230969496 0 0 Z M1770.875 1510.375 C1771.875 1512.375 1771.875 1512.375 1771.875 1512.375 Z M1181.875 1593.375 C1182.205 1594.695 1182.535 1596.015 1182.875 1597.375 C1183.205 1596.055 1183.535 1594.735 1183.875 1593.375 C1183.215 1593.375 1182.555 1593.375 1181.875 1593.375 Z M1180.875 1597.375 C1181.875 1599.375 1181.875 1599.375 1181.875 1599.375 Z M1179.875 1600.375 C1180.875 1602.375 1180.875 1602.375 1180.875 1602.375 Z M1178.875 1602.375 C1179.875 1604.375 1179.875 1604.375 1179.875 1604.375 Z " fill="#000000" transform="translate(666.125,24.625)"/>
</svg>
