<?xml version="1.0" encoding="utf-8" ?>
<svg baseProfile="tiny" height="1334" version="1.2" width="1000" xmlns="http://www.w3.org/2000/svg" xmlns:ev="http://www.w3.org/2001/xml-events" xmlns:xlink="http://www.w3.org/1999/xlink"><defs /><path d="M417,87 L416,88 L415,88 L414,89 L412,89 L410,91 L409,91 L408,92 L406,92 L405,93 L403,93 L402,94 L401,94 L400,95 L396,95 L395,96 L393,96 L392,97 L391,97 L390,98 L389,98 L388,99 L387,99 L385,101 L384,101 L379,106 L378,106 L375,109 L374,109 L373,110 L372,110 L371,111 L370,111 L369,112 L367,112 L366,113 L364,113 L363,114 L361,114 L360,115 L359,115 L358,116 L357,116 L356,117 L354,117 L353,118 L352,118 L351,119 L350,119 L349,120 L347,120 L346,121 L345,121 L344,122 L343,122 L342,123 L340,123 L339,124 L338,124 L337,125 L336,125 L335,126 L333,126 L332,127 L331,127 L329,129 L328,129 L327,130 L326,130 L325,131 L323,131 L322,132 L318,132 L317,133 L307,133 L306,134 L305,134 L304,135 L303,135 L303,137 L302,138 L303,139 L303,145 L299,149 L298,149 L297,150 L293,150 L292,151 L288,151 L287,152 L282,152 L281,153 L277,153 L276,154 L273,154 L272,155 L268,155 L267,156 L265,156 L264,157 L261,157 L260,158 L257,158 L256,159 L251,159 L250,160 L247,160 L246,161 L243,161 L242,162 L239,162 L238,163 L236,163 L235,164 L233,164 L232,165 L229,165 L228,166 L226,166 L225,167 L223,167 L222,168 L221,168 L220,169 L219,169 L218,170 L217,170 L216,171 L215,171 L214,172 L212,172 L211,173 L210,173 L208,175 L207,175 L206,176 L205,176 L203,178 L202,178 L201,179 L200,179 L199,180 L198,180 L195,183 L194,183 L192,185 L191,185 L182,194 L182,195 L179,198 L179,199 L178,200 L178,201 L177,202 L177,203 L176,204 L176,205 L174,207 L174,209 L173,210 L173,211 L172,212 L172,214 L171,215 L171,216 L170,217 L170,218 L169,219 L169,220 L168,221 L168,222 L167,223 L167,224 L166,225 L166,226 L165,227 L165,228 L164,229 L164,231 L163,232 L163,233 L162,234 L162,235 L161,236 L161,237 L160,238 L160,239 L159,240 L159,242 L158,243 L158,244 L157,245 L157,247 L156,248 L156,249 L155,250 L155,251 L154,252 L154,253 L153,254 L153,256 L152,257 L152,258 L151,259 L151,261 L150,262 L150,263 L149,264 L149,266 L148,267 L148,269 L147,270 L147,271 L146,272 L146,274 L145,275 L145,277 L144,278 L144,280 L143,281 L143,282 L142,283 L142,285 L141,286 L141,288 L140,289 L140,291 L139,292 L139,294 L138,295 L138,297 L137,298 L137,300 L136,301 L136,303 L135,304 L135,306 L134,307 L134,309 L133,310 L133,311 L132,312 L132,314 L131,315 L131,318 L130,319 L130,320 L129,321 L129,324 L128,325 L128,326 L127,327 L127,330 L126,331 L126,332 L125,333 L125,336 L124,337 L124,338 L123,339 L123,341 L122,342 L122,344 L121,345 L121,347 L120,348 L120,350 L119,351 L119,353 L118,354 L118,356 L117,357 L117,358 L116,359 L116,362 L115,363 L115,364 L114,365 L114,368 L113,369 L113,370 L112,371 L112,373 L111,374 L111,376 L110,377 L110,379 L109,380 L109,381 L108,382 L108,384 L107,385 L107,387 L106,388 L106,390 L105,391 L105,393 L104,394 L104,396 L103,397 L103,399 L102,400 L102,401 L101,402 L101,405 L100,406 L100,407 L99,408 L99,410 L98,411 L98,413 L97,414 L97,416 L96,417 L96,419 L95,420 L95,422 L94,423 L94,425 L93,426 L93,428 L92,429 L92,430 L91,431 L91,433 L90,434 L90,436 L89,437 L89,439 L88,440 L88,442 L87,443 L87,444 L86,445 L86,448 L85,449 L85,450 L84,451 L84,454 L83,455 L83,456 L82,457 L82,459 L81,460 L81,462 L80,463 L80,465 L79,466 L79,468 L78,469 L78,470 L77,471 L77,474 L76,475 L76,476 L75,477 L75,479 L74,480 L74,482 L73,483 L73,485 L72,486 L72,487 L71,488 L71,491 L70,492 L70,493 L69,494 L69,496 L68,497 L68,499 L67,500 L67,502 L66,503 L66,505 L65,506 L65,508 L64,509 L64,511 L63,512 L63,514 L62,515 L62,517 L61,518 L61,520 L60,521 L60,523 L59,524 L59,526 L58,527 L58,529 L57,530 L57,532 L56,533 L56,535 L55,536 L55,538 L54,539 L54,541 L53,542 L53,544 L52,545 L52,547 L51,548 L51,550 L50,551 L50,553 L49,554 L49,557 L48,558 L48,559 L47,560 L47,563 L46,564 L46,565 L45,566 L45,569 L44,570 L44,571 L43,572 L43,575 L42,576 L42,577 L41,578 L41,581 L40,582 L40,583 L39,584 L39,587 L38,588 L38,589 L37,590 L37,593 L36,594 L36,596 L35,597 L35,599 L34,600 L34,602 L33,603 L33,605 L32,606 L32,608 L31,609 L31,610 L30,611 L30,614 L29,615 L29,616 L28,617 L28,620 L27,621 L27,622 L26,623 L26,626 L25,627 L25,628 L24,629 L24,631 L23,632 L23,634 L22,635 L22,636 L21,637 L21,639 L20,640 L20,641 L19,642 L19,644 L18,645 L18,646 L17,647 L17,648 L16,649 L16,650 L15,651 L15,653 L13,655 L13,656 L12,657 L12,658 L11,659 L11,661 L10,662 L10,663 L9,664 L9,665 L8,666 L8,668 L7,669 L7,670 L6,671 L6,673 L5,674 L5,675 L4,676 L4,680 L5,681 L6,681 L7,682 L8,682 L9,683 L11,683 L12,684 L13,684 L14,685 L15,685 L16,686 L18,686 L19,687 L20,687 L21,688 L22,688 L23,689 L24,689 L25,690 L27,690 L28,691 L29,691 L30,692 L33,692 L34,693 L35,693 L36,694 L37,694 L38,695 L39,695 L40,696 L41,696 L42,697 L44,697 L45,698 L46,698 L47,699 L49,699 L50,700 L51,700 L52,701 L53,701 L54,702 L56,702 L57,703 L58,703 L59,704 L60,704 L61,705 L63,705 L64,706 L65,706 L66,707 L67,707 L68,708 L69,708 L70,709 L71,709 L72,710 L73,710 L74,711 L75,711 L76,712 L78,712 L79,713 L80,713 L81,714 L82,714 L83,715 L84,715 L85,716 L86,716 L87,717 L89,717 L90,718 L91,718 L92,719 L94,719 L95,720 L97,720 L98,721 L99,721 L100,722 L102,722 L103,723 L104,723 L105,724 L107,724 L108,725 L111,725 L112,726 L114,726 L115,727 L117,727 L118,728 L119,728 L120,729 L122,729 L123,730 L125,730 L126,731 L129,731 L130,732 L133,732 L134,733 L136,733 L137,734 L139,734 L140,735 L142,735 L143,736 L144,736 L145,737 L147,737 L148,738 L150,738 L151,739 L152,739 L153,740 L155,740 L156,741 L157,741 L158,742 L159,742 L160,743 L161,743 L162,744 L164,744 L165,745 L167,745 L168,746 L169,746 L170,747 L172,747 L173,748 L174,748 L175,749 L176,749 L177,750 L179,750 L180,751 L182,751 L183,752 L186,752 L187,753 L188,753 L189,754 L191,754 L192,755 L194,755 L195,756 L197,756 L198,757 L200,757 L201,758 L205,758 L206,759 L209,759 L210,760 L212,760 L213,761 L216,761 L217,762 L221,762 L222,763 L222,764 L223,765 L223,780 L222,781 L222,807 L221,808 L221,827 L220,828 L220,872 L219,873 L219,999 L218,1000 L218,1018 L217,1019 L217,1037 L216,1038 L216,1070 L215,1071 L215,1124 L214,1125 L214,1182 L215,1183 L215,1187 L216,1188 L216,1191 L217,1192 L217,1198 L218,1199 L218,1208 L217,1209 L217,1215 L218,1216 L218,1219 L220,1221 L221,1221 L222,1222 L224,1222 L225,1223 L228,1223 L229,1224 L233,1224 L234,1225 L239,1225 L240,1226 L249,1226 L250,1227 L259,1227 L260,1228 L265,1228 L266,1229 L275,1229 L276,1230 L284,1230 L285,1229 L346,1229 L347,1230 L415,1230 L416,1231 L506,1231 L507,1232 L638,1232 L639,1233 L675,1233 L676,1234 L701,1234 L702,1235 L729,1235 L730,1234 L733,1234 L734,1233 L736,1233 L737,1232 L739,1232 L740,1231 L741,1231 L742,1230 L743,1230 L746,1227 L747,1227 L747,1226 L757,1216 L757,1215 L759,1213 L759,1212 L760,1211 L760,1210 L761,1209 L761,1207 L762,1206 L762,1202 L763,1201 L763,1196 L764,1195 L764,1172 L765,1171 L765,1158 L766,1157 L766,1144 L767,1143 L767,1131 L768,1130 L768,1118 L769,1117 L769,1105 L770,1104 L770,1064 L771,1063 L771,987 L770,986 L770,964 L769,963 L769,936 L768,935 L768,885 L767,884 L767,839 L768,838 L768,803 L770,801 L771,801 L772,800 L774,800 L775,799 L776,799 L777,798 L779,798 L780,797 L782,797 L783,796 L784,796 L785,795 L787,795 L788,794 L790,794 L791,793 L792,793 L793,792 L795,792 L796,791 L799,791 L800,790 L803,790 L804,789 L807,789 L808,788 L811,788 L812,787 L814,787 L815,786 L817,786 L818,785 L821,785 L822,784 L825,784 L826,783 L828,783 L829,782 L831,782 L832,781 L834,781 L835,780 L836,780 L837,779 L839,779 L840,778 L842,778 L843,777 L845,777 L846,776 L848,776 L849,775 L850,775 L851,774 L853,774 L854,773 L855,773 L856,772 L859,772 L860,771 L863,771 L864,770 L866,770 L867,769 L869,769 L870,768 L871,768 L872,767 L874,767 L875,766 L876,766 L877,765 L879,765 L880,764 L881,764 L882,763 L883,763 L884,762 L886,762 L887,761 L888,761 L889,760 L890,760 L891,759 L893,759 L894,758 L897,758 L898,757 L900,757 L901,756 L903,756 L904,755 L906,755 L907,754 L909,754 L910,753 L911,753 L912,752 L915,752 L916,751 L918,751 L919,750 L920,750 L921,749 L922,749 L923,748 L924,748 L925,747 L926,747 L927,746 L928,746 L929,745 L931,745 L932,744 L933,744 L934,743 L936,743 L938,741 L940,741 L941,740 L942,740 L943,739 L944,739 L945,738 L947,738 L948,737 L949,737 L950,736 L951,736 L952,735 L953,735 L954,734 L956,734 L957,733 L958,733 L959,732 L960,732 L961,731 L963,731 L964,730 L965,730 L966,729 L967,729 L968,728 L970,728 L971,727 L972,727 L973,726 L974,726 L975,725 L977,725 L978,724 L980,724 L981,723 L982,723 L983,722 L984,722 L985,721 L986,721 L987,720 L989,720 L990,719 L991,719 L992,718 L993,718 L994,717 L994,716 L995,715 L995,714 L994,713 L994,710 L993,709 L993,706 L992,705 L992,701 L991,700 L991,696 L990,695 L990,692 L989,691 L989,689 L988,688 L988,685 L987,684 L987,682 L986,681 L986,679 L985,678 L985,676 L984,675 L984,672 L983,671 L983,669 L982,668 L982,665 L981,664 L981,663 L980,662 L980,659 L979,658 L979,656 L978,655 L978,652 L977,651 L977,648 L976,647 L976,645 L975,644 L975,641 L974,640 L974,638 L973,637 L973,635 L972,634 L972,632 L971,631 L971,628 L970,627 L970,625 L969,624 L969,621 L968,620 L968,618 L967,617 L967,614 L966,613 L966,612 L965,611 L965,608 L964,607 L964,605 L963,604 L963,601 L962,600 L962,597 L961,596 L961,594 L960,593 L960,591 L959,590 L959,588 L958,587 L958,585 L957,584 L957,582 L956,581 L956,578 L955,577 L955,576 L954,575 L954,572 L953,571 L953,569 L952,568 L952,565 L951,564 L951,563 L950,562 L950,559 L949,558 L949,556 L948,555 L948,553 L947,552 L947,550 L946,549 L946,547 L945,546 L945,543 L944,542 L944,540 L943,539 L943,537 L942,536 L942,534 L941,533 L941,530 L940,529 L940,528 L939,527 L939,524 L938,523 L938,521 L937,520 L937,517 L936,516 L936,514 L935,513 L935,511 L934,510 L934,508 L933,507 L933,504 L932,503 L932,501 L931,500 L931,498 L930,497 L930,494 L929,493 L929,491 L928,490 L928,487 L927,486 L927,485 L926,484 L926,481 L925,480 L925,478 L924,477 L924,474 L923,473 L923,472 L922,471 L922,468 L921,467 L921,465 L920,464 L920,462 L919,461 L919,458 L918,457 L918,455 L917,454 L917,451 L916,450 L916,448 L915,447 L915,444 L914,443 L914,442 L913,441 L913,438 L912,437 L912,435 L911,434 L911,431 L910,430 L910,428 L909,427 L909,424 L908,423 L908,421 L907,420 L907,417 L906,416 L906,414 L905,413 L905,410 L904,409 L904,406 L903,405 L903,404 L902,403 L902,400 L901,399 L901,397 L900,396 L900,393 L899,392 L899,390 L898,389 L898,386 L897,385 L897,383 L896,382 L896,379 L895,378 L895,376 L894,375 L894,372 L893,371 L893,369 L892,368 L892,366 L891,365 L891,362 L890,361 L890,359 L889,358 L889,355 L888,354 L888,352 L887,351 L887,348 L886,347 L886,345 L885,344 L885,342 L884,341 L884,339 L883,338 L883,335 L882,334 L882,333 L881,332 L881,329 L880,328 L880,325 L879,324 L879,322 L878,321 L878,319 L877,318 L877,315 L876,314 L876,312 L875,311 L875,309 L874,308 L874,306 L873,305 L873,303 L872,302 L872,299 L871,298 L871,297 L870,296 L870,293 L869,292 L869,291 L868,290 L868,287 L867,286 L867,285 L866,284 L866,282 L865,281 L865,279 L864,278 L864,276 L863,275 L863,273 L862,272 L862,271 L861,270 L861,268 L860,267 L860,266 L859,265 L859,263 L858,262 L858,261 L857,260 L857,259 L856,258 L856,257 L855,256 L855,255 L854,254 L854,253 L853,252 L853,251 L852,250 L852,249 L851,248 L851,247 L850,246 L850,245 L848,243 L848,242 L847,241 L847,240 L846,239 L846,238 L845,237 L845,236 L844,235 L844,234 L843,233 L843,232 L842,231 L842,230 L841,229 L841,228 L840,227 L840,225 L839,224 L839,223 L838,222 L838,220 L837,219 L837,218 L836,217 L836,216 L835,215 L835,214 L833,212 L833,211 L831,209 L831,208 L829,206 L829,205 L828,205 L827,204 L827,203 L817,193 L816,193 L814,191 L813,191 L809,187 L808,187 L807,186 L806,186 L805,185 L804,185 L802,183 L801,183 L799,181 L798,181 L797,180 L796,180 L795,179 L794,179 L793,178 L791,178 L790,177 L789,177 L788,176 L787,176 L786,175 L785,175 L784,174 L783,174 L782,173 L780,173 L779,172 L776,172 L775,171 L774,171 L773,170 L771,170 L770,169 L768,169 L767,168 L766,168 L765,167 L763,167 L762,166 L761,166 L760,165 L759,165 L758,164 L757,164 L756,163 L755,163 L754,162 L752,162 L751,161 L749,161 L748,160 L746,160 L745,159 L743,159 L742,158 L742,151 L740,149 L739,149 L738,148 L725,148 L724,147 L721,147 L720,146 L718,146 L717,145 L715,145 L714,144 L713,144 L712,143 L711,143 L710,142 L709,142 L708,141 L706,141 L705,140 L704,140 L703,139 L700,139 L699,138 L698,138 L697,137 L695,137 L694,136 L693,136 L692,135 L691,135 L690,134 L688,134 L687,133 L686,133 L685,132 L683,132 L682,131 L681,131 L679,129 L678,129 L677,128 L676,128 L675,127 L674,127 L673,126 L672,126 L669,123 L668,123 L665,120 L665,119 L664,119 L663,118 L663,117 L662,117 L660,115 L659,115 L658,114 L657,114 L656,113 L654,113 L653,112 L652,112 L650,110 L649,110 L647,108 L646,108 L644,106 L643,106 L639,102 L638,102 L630,94 L629,94 L627,92 L626,92 L625,91 L623,91 L623,92 L622,93 L622,94 L621,95 L621,96 L619,98 L619,99 L617,101 L616,101 L613,104 L612,104 L610,106 L609,106 L608,107 L607,107 L605,109 L604,109 L601,112 L600,112 L599,113 L598,113 L596,115 L595,115 L593,117 L592,117 L591,118 L590,118 L589,119 L587,119 L586,120 L585,120 L584,121 L582,121 L581,122 L578,122 L577,123 L571,123 L570,124 L559,124 L558,125 L530,125 L529,124 L519,124 L518,123 L508,123 L507,122 L501,122 L500,121 L495,121 L494,120 L489,120 L488,119 L482,119 L481,118 L478,118 L477,117 L475,117 L474,116 L471,116 L470,115 L468,115 L467,114 L465,114 L464,113 L461,113 L460,112 L457,112 L456,111 L455,111 L454,110 L453,110 L452,109 L451,109 L450,108 L449,108 L448,107 L447,107 L446,106 L445,106 L444,105 L443,105 L441,103 L440,103 L439,102 L438,102 L435,99 L434,99 L432,97 L431,97 L426,92 L425,92 L424,91 L424,90 L423,90 L422,89 L422,88 L421,88 L420,87 Z " fill="none" stroke="black" stroke-width="5" /></svg>