<?xml version="1.0" encoding="utf-8" ?>
<svg baseProfile="tiny" height="1571" version="1.2" width="1600" xmlns="http://www.w3.org/2000/svg" xmlns:ev="http://www.w3.org/2001/xml-events" xmlns:xlink="http://www.w3.org/1999/xlink"><defs /><path d="M666,34 L665,35 L662,35 L660,37 L659,37 L658,38 L657,38 L655,40 L653,40 L652,41 L649,41 L648,42 L647,42 L646,43 L644,43 L643,44 L641,44 L640,45 L638,45 L637,46 L634,46 L633,45 L627,45 L626,46 L625,46 L623,48 L621,48 L620,49 L619,49 L617,51 L616,51 L615,52 L613,52 L612,53 L610,53 L609,54 L608,54 L607,55 L605,55 L604,56 L603,56 L602,57 L600,57 L599,58 L598,58 L597,59 L594,59 L593,60 L590,60 L589,61 L587,61 L586,62 L584,62 L583,63 L581,63 L580,64 L578,64 L577,65 L575,65 L574,66 L572,66 L571,67 L568,67 L567,68 L564,68 L563,69 L562,69 L561,70 L559,70 L558,71 L555,71 L554,72 L553,72 L552,73 L548,73 L547,74 L546,74 L545,75 L543,75 L542,76 L539,76 L538,77 L537,77 L536,78 L534,78 L533,79 L531,79 L530,80 L528,80 L527,81 L525,81 L524,82 L522,82 L521,83 L519,83 L518,84 L516,84 L515,85 L513,85 L512,86 L510,86 L509,87 L507,87 L506,88 L504,88 L503,89 L501,89 L500,90 L498,90 L497,91 L496,91 L495,92 L493,92 L492,93 L489,93 L488,94 L486,94 L485,95 L483,95 L482,96 L481,96 L480,97 L478,97 L477,98 L474,98 L473,99 L472,99 L471,100 L469,100 L468,101 L466,101 L465,102 L463,102 L462,103 L460,103 L459,104 L457,104 L456,105 L455,105 L454,106 L452,106 L451,107 L449,107 L448,108 L445,108 L444,109 L443,109 L442,110 L440,110 L439,111 L437,111 L436,112 L435,112 L434,113 L431,113 L430,114 L428,114 L427,115 L426,115 L425,116 L423,116 L422,117 L420,117 L419,118 L417,118 L416,119 L415,119 L414,120 L411,120 L410,121 L408,121 L407,122 L405,122 L404,123 L403,123 L402,124 L400,124 L399,125 L398,125 L397,126 L396,126 L395,127 L393,127 L392,128 L390,128 L389,129 L388,129 L387,130 L385,130 L384,131 L383,131 L382,132 L381,132 L380,133 L379,133 L378,134 L376,134 L375,135 L373,135 L372,136 L371,136 L370,137 L369,137 L368,138 L366,138 L365,139 L364,139 L363,140 L362,140 L361,141 L360,141 L358,143 L357,143 L354,146 L353,146 L351,148 L350,148 L347,151 L346,151 L339,158 L339,159 L333,165 L333,166 L328,171 L328,172 L327,173 L326,173 L326,174 L319,181 L319,182 L313,188 L313,189 L308,194 L308,195 L299,204 L299,205 L293,211 L293,212 L288,217 L288,218 L284,222 L284,223 L278,229 L278,230 L274,234 L274,235 L268,241 L268,242 L263,247 L263,248 L258,253 L258,254 L254,258 L254,259 L253,260 L252,260 L252,261 L246,267 L246,268 L241,273 L241,274 L235,280 L235,281 L234,282 L233,282 L233,283 L229,287 L229,288 L225,292 L225,293 L216,302 L216,303 L208,311 L208,312 L203,317 L203,318 L195,326 L195,327 L188,334 L188,335 L181,342 L181,343 L176,348 L176,349 L168,357 L168,358 L160,366 L160,367 L151,376 L151,377 L142,386 L142,387 L135,394 L135,395 L134,396 L133,396 L133,397 L124,406 L124,407 L118,413 L118,414 L117,415 L116,415 L116,416 L104,428 L104,429 L90,443 L90,444 L82,452 L82,453 L78,457 L78,458 L76,460 L76,461 L73,464 L73,465 L60,478 L60,479 L56,483 L56,484 L51,489 L51,490 L37,504 L37,505 L36,506 L36,511 L44,519 L45,519 L52,526 L53,526 L65,538 L66,538 L81,553 L82,553 L98,569 L99,569 L115,585 L115,586 L122,593 L122,594 L129,601 L129,602 L135,608 L135,609 L140,614 L140,615 L144,619 L144,620 L148,624 L148,625 L152,629 L152,630 L157,635 L157,636 L160,639 L160,640 L164,644 L164,645 L168,649 L168,650 L173,655 L173,656 L177,660 L177,661 L181,665 L181,666 L185,670 L185,671 L189,675 L189,676 L193,680 L193,681 L197,685 L197,686 L202,691 L202,692 L205,695 L205,696 L209,700 L209,701 L213,705 L213,706 L215,708 L215,709 L219,713 L219,714 L222,717 L222,718 L226,722 L226,723 L230,727 L230,728 L232,730 L232,731 L235,734 L235,735 L238,738 L238,739 L241,742 L241,743 L246,748 L247,748 L248,749 L251,749 L252,748 L253,748 L254,747 L255,747 L257,745 L258,745 L259,744 L260,744 L262,742 L263,742 L264,741 L265,741 L268,738 L269,738 L271,736 L272,736 L273,735 L274,735 L275,734 L277,734 L278,733 L280,733 L281,732 L283,732 L284,731 L286,731 L288,729 L289,729 L290,728 L291,728 L293,726 L294,726 L295,725 L296,725 L298,723 L299,723 L302,720 L303,720 L305,718 L306,718 L308,716 L309,716 L312,713 L313,713 L315,711 L316,711 L319,708 L320,708 L322,706 L323,706 L326,703 L327,703 L329,701 L330,701 L333,698 L334,698 L336,696 L337,696 L339,694 L340,694 L342,692 L343,692 L346,689 L347,689 L349,687 L350,687 L352,685 L353,685 L355,683 L356,683 L358,681 L359,681 L361,679 L362,679 L363,678 L364,678 L366,676 L367,676 L368,675 L369,675 L370,674 L371,674 L373,672 L375,672 L376,671 L377,671 L378,672 L378,674 L379,675 L379,677 L378,678 L378,698 L379,699 L378,700 L378,702 L379,703 L379,715 L378,716 L378,718 L379,719 L379,747 L378,748 L378,856 L377,857 L377,865 L378,866 L378,868 L377,869 L377,919 L376,920 L376,994 L375,995 L375,1074 L374,1075 L374,1128 L373,1129 L373,1233 L372,1234 L372,1321 L371,1322 L371,1371 L370,1372 L370,1426 L369,1427 L369,1452 L368,1453 L368,1474 L367,1475 L367,1516 L366,1517 L366,1522 L365,1523 L365,1526 L366,1527 L366,1528 L367,1529 L367,1530 L368,1531 L369,1531 L370,1532 L382,1532 L383,1531 L403,1531 L404,1532 L413,1532 L414,1533 L423,1533 L424,1534 L433,1534 L434,1535 L453,1535 L454,1536 L767,1536 L768,1535 L803,1535 L804,1534 L805,1534 L806,1535 L817,1535 L818,1534 L843,1534 L844,1533 L1001,1533 L1002,1534 L1112,1534 L1113,1533 L1127,1533 L1128,1534 L1166,1534 L1167,1535 L1181,1535 L1182,1534 L1183,1534 L1184,1535 L1216,1535 L1217,1534 L1219,1534 L1221,1532 L1221,1531 L1222,1530 L1222,1528 L1223,1527 L1223,1497 L1224,1496 L1224,1480 L1223,1479 L1223,1430 L1222,1429 L1222,1375 L1221,1374 L1221,1339 L1220,1338 L1220,1316 L1219,1315 L1219,1283 L1218,1282 L1218,1253 L1217,1252 L1217,1208 L1216,1207 L1216,1154 L1215,1153 L1215,1112 L1214,1111 L1214,1067 L1213,1066 L1213,1031 L1212,1030 L1212,990 L1211,989 L1211,945 L1210,944 L1210,891 L1209,890 L1209,837 L1208,836 L1208,783 L1207,782 L1207,751 L1206,750 L1206,711 L1207,710 L1207,682 L1208,681 L1208,678 L1209,677 L1211,677 L1212,678 L1215,678 L1216,679 L1221,679 L1222,680 L1223,680 L1224,681 L1225,681 L1231,687 L1231,688 L1237,694 L1237,695 L1242,700 L1242,701 L1248,707 L1248,708 L1252,712 L1252,713 L1257,718 L1257,719 L1263,725 L1263,726 L1268,731 L1268,732 L1274,738 L1274,739 L1284,749 L1284,750 L1285,750 L1297,762 L1298,762 L1301,765 L1302,765 L1304,767 L1305,767 L1308,770 L1309,770 L1317,778 L1318,778 L1320,780 L1322,780 L1323,781 L1329,781 L1330,780 L1331,780 L1336,775 L1337,775 L1373,739 L1374,739 L1384,729 L1385,729 L1394,720 L1395,720 L1403,712 L1404,712 L1410,706 L1411,706 L1419,698 L1420,698 L1426,692 L1427,692 L1431,688 L1432,688 L1436,684 L1437,684 L1440,681 L1441,681 L1446,676 L1447,676 L1452,671 L1453,671 L1456,668 L1457,668 L1462,663 L1463,663 L1467,659 L1468,659 L1472,655 L1473,655 L1476,652 L1477,652 L1480,649 L1481,649 L1483,647 L1484,647 L1487,644 L1488,644 L1490,642 L1491,642 L1494,639 L1495,639 L1497,637 L1498,637 L1500,635 L1501,635 L1506,630 L1507,630 L1509,628 L1510,628 L1514,624 L1515,624 L1518,621 L1519,621 L1522,618 L1523,618 L1526,615 L1527,615 L1528,614 L1529,614 L1531,612 L1532,612 L1534,610 L1535,610 L1537,608 L1538,608 L1540,606 L1541,606 L1542,605 L1543,605 L1545,603 L1546,603 L1548,601 L1549,601 L1550,600 L1551,600 L1553,598 L1554,598 L1556,596 L1557,596 L1558,595 L1559,595 L1563,591 L1563,590 L1564,589 L1564,585 L1563,584 L1563,583 L1562,582 L1562,581 L1560,579 L1560,578 L1556,574 L1556,573 L1553,570 L1553,569 L1550,566 L1550,565 L1547,562 L1547,561 L1542,556 L1542,555 L1540,553 L1540,552 L1538,550 L1538,549 L1531,542 L1531,541 L1529,539 L1529,538 L1527,536 L1527,535 L1526,534 L1526,533 L1524,531 L1524,530 L1522,528 L1522,527 L1521,526 L1521,525 L1519,523 L1519,522 L1517,520 L1517,519 L1515,517 L1515,516 L1513,514 L1513,513 L1511,511 L1511,510 L1510,509 L1510,508 L1508,506 L1508,505 L1506,503 L1506,502 L1504,500 L1504,499 L1502,497 L1502,496 L1500,494 L1500,493 L1498,491 L1498,490 L1496,488 L1496,487 L1494,485 L1494,484 L1492,482 L1492,481 L1491,480 L1491,479 L1489,477 L1489,476 L1487,474 L1487,473 L1485,471 L1485,470 L1483,468 L1483,467 L1481,465 L1481,464 L1479,462 L1479,461 L1477,459 L1477,458 L1476,457 L1476,456 L1474,454 L1474,453 L1472,451 L1472,450 L1471,449 L1471,448 L1469,446 L1469,445 L1467,443 L1467,442 L1465,440 L1465,439 L1463,437 L1463,436 L1462,435 L1462,434 L1460,432 L1460,431 L1458,429 L1458,428 L1456,426 L1456,425 L1454,423 L1454,422 L1452,420 L1452,419 L1451,418 L1451,417 L1449,415 L1449,414 L1447,412 L1447,411 L1446,410 L1446,409 L1444,407 L1444,406 L1442,404 L1442,403 L1440,401 L1440,400 L1438,398 L1438,397 L1436,395 L1436,394 L1435,393 L1435,392 L1433,390 L1433,389 L1431,387 L1431,386 L1429,384 L1429,383 L1427,381 L1427,380 L1426,379 L1426,378 L1424,376 L1424,375 L1422,373 L1422,372 L1420,370 L1420,369 L1418,367 L1418,366 L1417,365 L1417,364 L1415,362 L1415,361 L1413,359 L1413,358 L1410,355 L1410,354 L1407,351 L1407,350 L1405,348 L1405,347 L1402,344 L1402,343 L1399,340 L1399,339 L1396,336 L1396,335 L1393,332 L1393,331 L1391,329 L1391,328 L1387,324 L1387,323 L1384,320 L1384,319 L1382,317 L1382,316 L1378,312 L1378,311 L1375,308 L1375,307 L1372,304 L1372,303 L1370,301 L1370,300 L1366,296 L1366,295 L1364,293 L1364,292 L1361,289 L1361,288 L1358,285 L1358,284 L1355,281 L1355,280 L1352,277 L1352,276 L1349,273 L1349,272 L1346,269 L1346,268 L1343,265 L1343,264 L1341,262 L1341,261 L1338,258 L1338,257 L1335,254 L1335,253 L1332,250 L1332,249 L1329,246 L1329,245 L1326,242 L1326,241 L1322,237 L1322,236 L1318,232 L1318,231 L1313,226 L1313,225 L1309,221 L1309,220 L1305,216 L1305,215 L1300,210 L1300,209 L1296,205 L1296,204 L1291,199 L1291,198 L1287,194 L1287,193 L1282,188 L1282,187 L1275,180 L1275,179 L1268,172 L1268,171 L1260,163 L1259,163 L1257,161 L1256,161 L1252,157 L1251,157 L1249,155 L1248,155 L1245,152 L1244,152 L1242,150 L1241,150 L1239,148 L1238,148 L1237,147 L1236,147 L1235,146 L1234,146 L1232,144 L1231,144 L1230,143 L1229,143 L1228,142 L1227,142 L1226,141 L1225,141 L1224,140 L1223,140 L1222,139 L1221,139 L1220,138 L1219,138 L1218,137 L1217,137 L1215,135 L1214,135 L1213,134 L1212,134 L1211,133 L1209,133 L1208,132 L1207,132 L1206,131 L1205,131 L1204,130 L1202,130 L1201,129 L1200,129 L1199,128 L1197,128 L1196,127 L1194,127 L1193,126 L1192,126 L1191,125 L1190,125 L1189,124 L1187,124 L1186,123 L1185,123 L1184,122 L1182,122 L1181,121 L1180,121 L1179,120 L1177,120 L1176,119 L1174,119 L1173,118 L1172,118 L1171,117 L1170,117 L1169,116 L1167,116 L1166,115 L1164,115 L1163,114 L1162,114 L1161,113 L1159,113 L1158,112 L1157,112 L1156,111 L1154,111 L1153,110 L1152,110 L1151,109 L1149,109 L1148,108 L1147,108 L1146,107 L1144,107 L1143,106 L1142,106 L1141,105 L1139,105 L1138,104 L1137,104 L1136,103 L1134,103 L1133,102 L1132,102 L1131,101 L1129,101 L1128,100 L1126,100 L1125,99 L1124,99 L1123,98 L1121,98 L1120,97 L1119,97 L1118,96 L1117,96 L1116,95 L1114,95 L1113,94 L1111,94 L1110,93 L1109,93 L1108,92 L1106,92 L1105,91 L1104,91 L1103,90 L1101,90 L1100,89 L1099,89 L1098,88 L1096,88 L1095,87 L1094,87 L1093,86 L1092,86 L1091,85 L1089,85 L1088,84 L1087,84 L1086,83 L1085,83 L1084,82 L1082,82 L1081,81 L1080,81 L1079,80 L1078,80 L1077,79 L1075,79 L1074,78 L1073,78 L1072,77 L1071,77 L1070,76 L1068,76 L1067,75 L1066,75 L1065,74 L1064,74 L1063,73 L1061,73 L1060,72 L1059,72 L1058,71 L1056,71 L1055,70 L1054,70 L1053,69 L1052,69 L1051,68 L1049,68 L1048,67 L1047,67 L1046,66 L1045,66 L1044,65 L1042,65 L1041,64 L1040,64 L1039,63 L1037,63 L1036,62 L1034,62 L1033,61 L1032,61 L1031,60 L1030,60 L1029,59 L1028,59 L1027,58 L1026,58 L1025,57 L1023,57 L1022,56 L1021,56 L1020,55 L1019,55 L1018,54 L1017,54 L1016,53 L1014,53 L1013,52 L1012,52 L1011,51 L1009,51 L1008,50 L1001,50 L1000,51 L993,51 L992,50 L988,50 L987,49 L984,49 L983,48 L982,48 L981,47 L980,47 L972,39 L971,39 L969,37 L967,37 L966,36 L962,36 L961,37 L960,37 L959,38 L958,38 L957,39 L955,39 L954,40 L953,40 L952,41 L951,41 L950,42 L948,42 L947,43 L946,43 L945,44 L943,44 L942,45 L941,45 L940,46 L939,46 L938,47 L937,47 L936,48 L935,48 L934,49 L932,49 L930,51 L928,51 L927,52 L926,52 L925,53 L924,53 L923,54 L922,54 L921,55 L919,55 L918,56 L917,56 L916,57 L914,57 L913,58 L912,58 L911,59 L909,59 L908,60 L906,60 L905,61 L903,61 L902,62 L900,62 L899,63 L896,63 L895,64 L893,64 L892,65 L889,65 L888,66 L885,66 L884,67 L882,67 L881,68 L878,68 L877,69 L874,69 L873,70 L869,70 L868,71 L863,71 L862,72 L858,72 L857,73 L853,73 L852,74 L847,74 L846,75 L840,75 L839,76 L828,76 L827,77 L821,77 L820,78 L792,78 L791,77 L782,77 L781,76 L773,76 L772,75 L767,75 L766,74 L761,74 L760,73 L757,73 L756,72 L753,72 L752,71 L750,71 L749,70 L747,70 L746,69 L744,69 L743,68 L740,68 L739,67 L737,67 L736,66 L734,66 L733,65 L731,65 L730,64 L729,64 L728,63 L727,63 L726,62 L724,62 L723,61 L722,61 L721,60 L720,60 L719,59 L717,59 L716,58 L715,58 L714,57 L713,57 L712,56 L711,56 L710,55 L709,55 L708,54 L707,54 L706,53 L704,53 L703,52 L702,52 L701,51 L700,51 L699,50 L698,50 L697,49 L696,49 L695,48 L694,48 L693,47 L692,47 L691,46 L690,46 L689,45 L688,45 L687,44 L686,44 L685,43 L684,43 L682,41 L681,41 L679,39 L678,39 L676,37 L675,37 L674,36 L673,36 L672,35 L669,35 L668,34 Z " fill="none" stroke="black" stroke-width="5" /></svg>