<?xml version="1.0" encoding="utf-8" ?>
<svg baseProfile="tiny" height="888" version="1.2" width="888" xmlns="http://www.w3.org/2000/svg" xmlns:ev="http://www.w3.org/2001/xml-events" xmlns:xlink="http://www.w3.org/1999/xlink"><defs /><path d="M540,73 L539,74 L538,74 L537,75 L536,75 L533,78 L532,78 L530,80 L529,80 L527,82 L526,82 L525,83 L524,83 L522,85 L521,85 L520,86 L519,86 L518,87 L517,87 L516,88 L515,88 L514,89 L513,89 L512,90 L510,90 L509,91 L507,91 L506,92 L504,92 L503,93 L499,93 L498,94 L494,94 L493,95 L490,95 L489,96 L481,96 L480,97 L469,97 L468,98 L441,98 L440,97 L433,97 L432,96 L428,96 L427,95 L421,95 L420,94 L416,94 L415,93 L413,93 L412,92 L410,92 L409,91 L404,91 L403,90 L400,90 L399,89 L397,89 L396,88 L394,88 L393,87 L390,87 L389,86 L388,86 L386,84 L385,84 L384,83 L383,83 L382,82 L381,82 L380,81 L379,81 L378,80 L377,80 L376,79 L375,79 L374,78 L373,78 L371,76 L370,76 L369,75 L366,75 L365,74 L362,74 L361,75 L358,75 L357,76 L355,76 L354,77 L353,77 L352,78 L351,78 L350,79 L349,79 L348,80 L346,80 L345,81 L343,81 L342,82 L339,82 L338,83 L335,83 L334,84 L332,84 L331,85 L328,85 L327,86 L326,86 L325,87 L324,87 L323,88 L322,88 L320,90 L319,90 L318,91 L317,91 L316,92 L314,92 L313,93 L312,93 L311,94 L310,94 L309,95 L308,95 L306,97 L305,97 L304,98 L303,98 L302,99 L299,99 L298,100 L296,100 L295,101 L294,101 L293,102 L292,102 L291,103 L289,103 L288,104 L287,104 L286,105 L285,105 L284,106 L283,106 L282,107 L281,107 L280,108 L279,108 L278,109 L277,109 L276,110 L275,110 L274,111 L273,111 L272,112 L271,112 L270,113 L269,113 L268,114 L267,114 L266,115 L265,115 L264,116 L263,116 L262,117 L261,117 L260,118 L259,118 L258,119 L257,119 L256,120 L255,120 L254,121 L253,121 L251,123 L250,123 L249,124 L248,124 L246,126 L245,126 L244,127 L243,127 L241,129 L240,129 L237,132 L236,132 L234,134 L233,134 L230,137 L229,137 L225,141 L224,141 L220,145 L219,145 L212,152 L211,152 L180,183 L180,184 L176,188 L176,189 L168,197 L168,198 L164,202 L163,202 L159,206 L159,207 L157,209 L157,210 L151,216 L151,217 L149,219 L149,220 L147,222 L147,223 L141,229 L141,230 L140,231 L140,233 L139,234 L139,235 L137,237 L137,238 L134,241 L134,242 L133,243 L133,244 L132,245 L132,247 L131,248 L131,250 L130,251 L130,253 L128,255 L128,256 L126,258 L126,260 L125,261 L125,263 L124,264 L124,265 L123,266 L123,267 L122,268 L122,269 L121,270 L121,271 L120,272 L120,274 L119,275 L119,278 L118,279 L118,280 L117,281 L117,282 L116,283 L116,284 L115,285 L115,287 L114,288 L114,291 L113,292 L113,294 L112,295 L112,296 L111,297 L111,298 L110,299 L110,301 L109,302 L109,306 L108,307 L108,308 L107,309 L107,311 L106,312 L106,313 L105,314 L105,319 L104,320 L104,323 L103,324 L103,325 L102,326 L102,328 L101,329 L101,333 L100,334 L100,337 L99,338 L99,340 L98,341 L98,344 L97,345 L97,351 L96,352 L96,355 L95,356 L95,360 L94,361 L94,366 L93,367 L93,371 L92,372 L92,376 L91,377 L91,380 L90,381 L90,383 L89,384 L89,387 L88,388 L88,392 L87,393 L87,398 L86,399 L86,403 L85,404 L85,408 L84,409 L84,414 L83,415 L83,419 L82,420 L82,428 L81,429 L81,432 L80,433 L80,437 L79,438 L79,443 L78,444 L78,449 L77,450 L77,454 L76,455 L76,458 L75,459 L75,467 L74,468 L74,474 L73,475 L73,482 L72,483 L72,491 L71,492 L71,505 L70,506 L70,510 L69,511 L69,519 L68,520 L68,527 L67,528 L67,537 L66,538 L66,547 L65,548 L65,551 L64,552 L64,559 L63,560 L63,566 L62,567 L62,573 L61,574 L61,579 L60,580 L60,586 L59,587 L59,593 L58,594 L58,609 L57,610 L57,612 L58,613 L58,614 L57,615 L57,630 L56,631 L56,648 L55,649 L55,657 L54,658 L54,674 L53,675 L53,682 L52,683 L52,686 L51,687 L51,739 L50,740 L50,744 L49,745 L49,747 L48,748 L48,751 L47,752 L47,758 L48,759 L48,761 L52,765 L54,765 L55,766 L58,766 L59,767 L66,767 L67,768 L80,768 L81,767 L87,767 L88,766 L92,766 L93,765 L96,765 L97,764 L101,764 L102,763 L120,763 L121,764 L130,764 L131,765 L147,765 L148,764 L152,764 L153,763 L155,763 L157,761 L158,761 L159,760 L159,759 L161,757 L161,755 L162,754 L162,733 L161,732 L161,705 L160,704 L160,697 L161,696 L161,693 L162,692 L163,693 L163,696 L164,697 L164,712 L165,713 L165,720 L166,721 L166,727 L167,728 L167,734 L168,735 L168,741 L169,742 L169,748 L170,749 L170,756 L171,757 L171,765 L172,766 L172,770 L173,771 L173,775 L174,776 L174,780 L175,781 L175,785 L176,786 L176,790 L177,791 L177,794 L178,795 L178,799 L179,800 L179,803 L180,804 L180,805 L181,806 L181,807 L182,808 L182,809 L183,810 L184,810 L185,811 L186,811 L187,812 L198,812 L199,811 L204,811 L205,810 L217,810 L218,809 L227,809 L228,808 L234,808 L235,807 L244,807 L245,806 L250,806 L251,805 L253,805 L254,804 L256,804 L257,803 L259,803 L260,802 L262,802 L263,801 L265,801 L266,800 L267,800 L268,799 L269,799 L270,798 L271,798 L272,797 L274,797 L275,796 L278,796 L279,795 L280,795 L281,794 L283,794 L284,793 L287,793 L288,792 L291,792 L292,791 L294,791 L295,790 L297,790 L298,789 L302,789 L303,788 L313,788 L314,789 L323,789 L324,790 L328,790 L329,791 L331,791 L332,792 L340,792 L341,793 L367,793 L368,792 L374,792 L375,791 L386,791 L387,790 L392,790 L393,789 L399,789 L400,788 L403,788 L404,787 L409,787 L410,786 L416,786 L417,785 L422,785 L423,784 L425,784 L426,785 L432,785 L433,784 L437,784 L438,783 L452,783 L453,784 L462,784 L464,786 L465,786 L466,787 L468,787 L469,788 L472,788 L473,787 L478,787 L479,786 L483,786 L484,785 L488,785 L489,786 L504,786 L505,787 L516,787 L517,788 L526,788 L527,789 L535,789 L536,790 L541,790 L542,791 L549,791 L550,792 L554,792 L555,793 L559,793 L560,794 L565,794 L566,795 L569,795 L570,796 L573,796 L574,797 L577,797 L578,798 L580,798 L581,799 L583,799 L584,800 L585,800 L586,801 L587,801 L588,802 L589,802 L590,803 L592,803 L593,804 L595,804 L596,805 L598,805 L599,806 L601,806 L602,807 L604,807 L605,808 L608,808 L609,809 L612,809 L613,810 L617,810 L618,811 L623,811 L624,812 L628,812 L629,813 L634,813 L635,814 L645,814 L646,815 L681,815 L682,814 L686,814 L687,813 L688,813 L689,812 L690,812 L692,810 L692,809 L693,808 L693,806 L694,805 L694,799 L695,798 L695,790 L696,789 L696,784 L697,783 L697,779 L698,778 L698,774 L699,773 L699,768 L700,767 L700,763 L701,762 L701,759 L702,758 L702,756 L703,755 L703,752 L704,751 L704,748 L705,747 L705,743 L706,742 L706,738 L707,737 L707,733 L708,732 L708,724 L709,723 L709,715 L710,714 L710,709 L711,708 L711,704 L712,703 L713,703 L714,704 L714,705 L715,706 L715,708 L716,709 L716,711 L717,712 L717,714 L718,715 L718,717 L719,718 L719,720 L720,721 L720,723 L721,724 L721,726 L722,727 L722,729 L723,730 L723,732 L724,733 L724,736 L725,737 L725,741 L726,742 L726,747 L727,748 L727,751 L728,752 L728,755 L729,756 L729,758 L730,759 L730,762 L731,763 L731,767 L732,768 L732,770 L733,771 L733,772 L735,774 L736,774 L737,775 L739,775 L740,776 L750,776 L751,775 L755,775 L756,774 L760,774 L761,773 L767,773 L768,772 L770,772 L771,771 L773,771 L774,770 L776,770 L777,769 L780,769 L781,768 L786,768 L787,767 L794,767 L795,766 L802,766 L803,765 L810,765 L811,764 L818,764 L819,763 L824,763 L825,762 L828,762 L829,761 L830,761 L833,758 L833,757 L834,756 L834,753 L835,752 L835,732 L836,731 L836,722 L837,721 L837,712 L838,711 L838,705 L839,704 L839,670 L838,669 L838,658 L837,657 L837,644 L836,643 L836,631 L835,630 L835,621 L834,620 L834,612 L833,611 L833,603 L832,602 L832,595 L831,594 L831,577 L830,576 L830,568 L829,567 L829,559 L828,558 L828,553 L827,552 L827,541 L826,540 L826,527 L825,526 L825,521 L824,520 L824,515 L823,514 L823,503 L822,502 L822,494 L821,493 L821,488 L820,487 L820,483 L819,482 L819,478 L818,477 L818,473 L817,472 L817,468 L816,467 L816,464 L815,463 L815,461 L814,460 L814,457 L813,456 L813,453 L812,452 L812,448 L811,447 L811,444 L810,443 L810,441 L809,440 L809,438 L808,437 L808,434 L807,433 L807,429 L806,428 L806,425 L805,424 L805,421 L804,420 L804,418 L803,417 L803,414 L802,413 L802,411 L801,410 L801,407 L800,406 L800,403 L799,402 L799,400 L798,399 L798,396 L797,395 L797,393 L796,392 L796,389 L795,388 L795,385 L794,384 L794,381 L793,380 L793,378 L792,377 L792,374 L791,373 L791,371 L790,370 L790,367 L789,366 L789,364 L788,363 L788,360 L787,359 L787,357 L786,356 L786,353 L785,352 L785,350 L784,349 L784,347 L783,346 L783,344 L782,343 L782,340 L781,339 L781,337 L780,336 L780,334 L779,333 L779,331 L778,330 L778,328 L777,327 L777,325 L776,324 L776,322 L775,321 L775,320 L774,319 L774,317 L773,316 L773,314 L772,313 L772,311 L771,310 L771,308 L770,307 L770,306 L769,305 L769,303 L768,302 L768,300 L767,299 L767,298 L766,297 L766,295 L765,294 L765,292 L764,291 L764,290 L763,289 L763,288 L762,287 L762,285 L761,284 L761,283 L760,282 L760,281 L759,280 L759,278 L758,277 L758,276 L757,275 L757,274 L756,273 L756,271 L755,270 L755,269 L754,268 L754,267 L753,266 L753,264 L752,263 L752,262 L751,261 L751,259 L750,258 L750,256 L749,255 L749,254 L748,253 L748,251 L747,250 L747,248 L746,247 L746,246 L745,245 L745,243 L744,242 L744,241 L743,240 L743,238 L742,237 L742,236 L741,235 L741,233 L740,232 L740,231 L739,230 L739,229 L737,227 L737,226 L736,225 L736,224 L734,222 L734,221 L732,219 L732,218 L730,216 L730,215 L729,214 L729,213 L727,211 L727,210 L724,207 L724,206 L722,204 L722,203 L719,200 L719,199 L716,196 L716,195 L713,192 L713,191 L711,189 L711,188 L708,185 L708,184 L706,182 L706,181 L704,179 L704,178 L702,176 L702,175 L698,171 L698,170 L694,166 L694,165 L690,161 L689,161 L687,159 L687,158 L684,155 L684,154 L682,152 L681,152 L679,150 L678,150 L676,148 L675,148 L674,147 L674,146 L669,141 L668,141 L667,140 L665,140 L664,139 L663,139 L656,132 L654,132 L653,131 L652,131 L651,130 L650,130 L649,129 L649,128 L646,125 L645,125 L644,124 L642,124 L641,123 L638,123 L637,122 L636,122 L632,118 L631,118 L630,117 L628,117 L627,116 L626,116 L625,115 L624,115 L621,112 L620,112 L618,110 L616,110 L615,109 L612,109 L611,108 L610,108 L607,105 L606,105 L605,104 L604,104 L603,103 L602,103 L601,102 L599,102 L598,101 L597,101 L594,98 L593,98 L592,97 L591,97 L590,96 L588,96 L586,94 L585,94 L582,91 L581,91 L580,90 L579,90 L578,89 L577,89 L576,88 L575,88 L574,87 L573,87 L572,86 L571,86 L570,85 L569,85 L568,84 L567,84 L566,83 L565,83 L564,82 L563,82 L562,81 L561,81 L560,80 L559,80 L557,78 L556,78 L555,77 L554,77 L552,75 L551,75 L550,74 L549,74 L548,73 Z " fill="none" stroke="black" stroke-width="5" /></svg>